<svg width="40" height="40" viewBox="0 0 40 40" fill="none" xmlns="http://www.w3.org/2000/svg">
<rect width="40" height="40" rx="8" fill="white"/>
<path d="M30.6988 30.2716C29.5752 30.7325 27.9619 30.9342 26.118 31.0495L24.4471 25.057L23.4099 31.0495C21.5084 31.1071 19.8086 31.0206 18.6562 30.4733C19.002 26.0365 19.4341 21.8303 20.2696 18.6612H23.6692H24.0437H24.7352H25.1097H28.6245C29.6905 21.7726 30.2955 25.8637 30.6988 30.2716ZM28.7109 17.7969V18.4883C28.7109 18.5748 28.6245 18.6612 28.5381 18.6612C24.4448 18.6612 24.3533 18.6612 20.3272 18.6612C20.2408 18.6612 20.1544 18.5748 20.1544 18.4883V17.7969C20.1544 17.7105 20.2408 17.624 20.3272 17.624H28.5381C28.6533 17.624 28.7109 17.7105 28.7109 17.7969Z" fill="#002354"/>
<path d="M15.209 9.18555L15.3604 9.4502L15.3633 9.45508C15.5626 9.78801 15.845 10.0635 16.1826 10.2549C16.5201 10.4461 16.9012 10.5468 17.2891 10.5469C17.6771 10.5469 18.0589 10.4462 18.3965 10.2549C18.7341 10.0635 19.0165 9.78802 19.2158 9.45508L19.2168 9.4541L19.376 9.18555H21.416L25.0244 10.9893V15.0703H21.832V23.0518H12.7549V15.0703H9.5625V10.9893L13.1709 9.18555H15.209Z" fill="#002354" stroke="white" stroke-width="0.5"/>
</svg>
