<svg width="24" height="24" viewBox="0 0 24 24" fill="none" xmlns="http://www.w3.org/2000/svg">
<path d="M7.54756 6.57972L4.49463 3.46999L1.3849 6.52292L1.25 6.38803L4.50173 3.2002L7.68956 6.44482L7.54756 6.57972Z" stroke="#002354" stroke-width="0.64"/>
<path d="M4.55888 3.33496H4.36719V21.3118H4.55888V3.33496Z" stroke="#002354" stroke-width="0.64"/>
<path d="M15.0788 6.57972L12.0259 3.46999L8.91621 6.52292L8.78125 6.38803L12.0259 3.2002L15.2137 6.44482L15.0788 6.57972Z" stroke="#002354" stroke-width="0.64"/>
<path d="M12.098 3.33496H11.9062V21.3118H12.098V3.33496Z" stroke="#002354" stroke-width="0.64"/>
<path d="M22.6171 6.57972L19.5642 3.46999L16.4474 6.52292L16.3125 6.38803L19.5642 3.2002L22.752 6.44482L22.6171 6.57972Z" stroke="#002354" stroke-width="0.64"/>
<path d="M19.6292 3.33496H19.4375V21.3118H19.6292V3.33496Z" stroke="#002354" stroke-width="0.64"/>
<path d="M23.1969 18.5078H0.796875V18.6995H23.1969V18.5078Z" stroke="#002354" stroke-width="0.64"/>
</svg>
