<svg width="64" height="64" viewBox="0 0 64 64" fill="none" xmlns="http://www.w3.org/2000/svg">
<path fill-rule="evenodd" clip-rule="evenodd" d="M58.5938 34.4219L58.5937 59.0086L5.40193 59.0085L5.40193 34.4219L58.5938 34.4219ZM57.3937 35.6219L6.60193 35.6219L6.60193 57.8085L57.3937 57.8085L57.3937 35.6219Z" fill="white"/>
<path fill-rule="evenodd" clip-rule="evenodd" d="M46.7586 17.0293H58.5948V28.2122H57.3948V19.0778L32.0884 44.3842L5.75781 18.0536L6.60634 17.2051L32.0884 42.6871L56.5463 18.2293H46.7586V17.0293Z" fill="white"/>
<path fill-rule="evenodd" clip-rule="evenodd" d="M46.2656 45.3418V40.7773H47.4656V45.3418H46.2656ZM46.2663 52.6512V48.0867H47.4663V52.6512H46.2663Z" fill="white"/>
<path fill-rule="evenodd" clip-rule="evenodd" d="M48.2402 46.1133L52.8047 46.1133L52.8047 47.3133L48.2402 47.3133L48.2402 46.1133ZM40.9308 46.114L45.4953 46.114L45.4953 47.314L40.9308 47.314L40.9308 46.114Z" fill="white"/>
<path fill-rule="evenodd" clip-rule="evenodd" d="M23.2031 11.0735V5.59375H24.4031V11.0735H23.2031ZM23.204 19.8485V14.3687H24.404V19.8485H23.204Z" fill="white"/>
<path fill-rule="evenodd" clip-rule="evenodd" d="M25.45 12.1211L30.9297 12.1211L30.9297 13.3211L25.45 13.3211L25.45 12.1211ZM16.675 12.1219L22.1547 12.1219L22.1547 13.3219L16.675 13.3219L16.675 12.1219Z" fill="white"/>
</svg>
