<svg width="64" height="64" viewBox="0 0 64 64" fill="none" xmlns="http://www.w3.org/2000/svg">
<path fill-rule="evenodd" clip-rule="evenodd" d="M49.7277 24.4922L50.3554 25.3748L49.9342 25.6743L50.2167 25.8752L50.0782 26.07C50.0458 26.1155 49.9703 26.2159 49.8576 26.3656C49.8186 26.4174 49.7752 26.4752 49.7275 26.5386C48.8558 27.6991 46.5699 30.7739 44.3146 34.4842C42.9481 36.7324 41.6033 39.1976 40.6018 41.5891C39.596 43.9908 38.9578 46.2687 38.9578 48.1566C38.9578 54.7501 44.0702 60.4221 49.7277 60.4221C50.4282 60.4221 51.1196 60.3352 51.7948 60.1713C56.4338 58.8373 60.4976 53.7415 60.4976 48.1566C60.4976 46.1236 59.7578 43.6416 58.6203 41.0445C57.4882 38.4598 55.9873 35.8171 54.5198 33.4791L55.5451 32.8558C57.0298 35.2211 58.5549 37.9042 59.7195 40.5631C60.8787 43.2096 61.6976 45.8741 61.6976 48.1566C61.6976 54.2725 57.2811 59.8494 52.1136 61.3283L52.1023 61.3315L52.0908 61.3343C51.3232 61.5217 50.5324 61.6221 49.7277 61.6221C43.2723 61.6221 37.7578 55.2692 37.7578 48.1566C37.7578 46.0331 38.4664 43.5816 39.4949 41.1255C40.5278 38.6591 41.9051 36.138 43.2892 33.8609C45.7171 29.8666 48.1986 26.5733 48.9105 25.6285C49.0094 25.4972 49.0742 25.4112 49.0998 25.3751L49.7277 24.4922Z" fill="white"/>
<path d="M50.3554 25.3748L49.9342 25.6743L50.2167 25.8752L50.0782 26.07C50.0458 26.1155 49.9703 26.2159 49.8576 26.3656C49.8186 26.4174 49.7752 26.4752 49.7275 26.5386C50.5705 27.6627 52.5564 30.3512 54.5198 33.4791L55.5451 32.8558C53.3903 29.4228 51.2567 26.5733 50.5448 25.6285C50.4458 25.4972 50.3811 25.4109 50.3554 25.3748Z" fill="white"/>
<path fill-rule="evenodd" clip-rule="evenodd" d="M22.2031 10.514V2.97852H23.4031V10.514H22.2031ZM22.2031 43.2747V35.7392H23.4031V43.2747H22.2031Z" fill="white"/>
<path fill-rule="evenodd" clip-rule="evenodd" d="M35.4176 22.5273L42.9531 22.5273L42.9531 23.7273L35.4176 23.7273L35.4176 22.5273ZM2.65694 22.5273L10.1925 22.5273L10.1925 23.7273L2.65694 23.7273L2.65694 22.5273Z" fill="white"/>
<path fill-rule="evenodd" clip-rule="evenodd" d="M31.3044 13.7835L36.6328 8.45508L37.4813 9.30361L32.1529 14.632L31.3044 13.7835ZM8.13911 36.9488L13.4675 31.6204L14.3161 32.4689L8.98764 37.7973L8.13911 36.9488Z" fill="white"/>
<path fill-rule="evenodd" clip-rule="evenodd" d="M14.3128 13.7835L8.98438 8.45508L8.13585 9.30361L13.4643 14.632L14.3128 13.7835ZM37.4781 36.9488L32.1497 31.6204L31.3011 32.4689L36.6295 37.7973L37.4781 36.9488Z" fill="white"/>
<path fill-rule="evenodd" clip-rule="evenodd" d="M22.8095 16.7234C19.2757 16.7234 16.4109 19.5882 16.4109 23.122C16.4109 26.6558 19.2757 29.5205 22.8095 29.5205C26.3433 29.5205 29.208 26.6558 29.208 23.122C29.208 19.5882 26.3433 16.7234 22.8095 16.7234ZM15.2109 23.122C15.2109 18.9254 18.6129 15.5234 22.8095 15.5234C27.006 15.5234 30.408 18.9254 30.408 23.122C30.408 27.3185 27.006 30.7205 22.8095 30.7205C18.6129 30.7205 15.2109 27.3185 15.2109 23.122Z" fill="white"/>
</svg>
