<svg width="127" height="26" viewBox="0 0 127 26" fill="none" xmlns="http://www.w3.org/2000/svg">
<g clip-path="url(#clip0_692_14930)">
<mask id="mask0_692_14930" style="mask-type:luminance" maskUnits="userSpaceOnUse" x="0" y="0" width="127" height="26">
<path d="M127 0H0V26H127V0Z" fill="white"/>
</mask>
<g mask="url(#mask0_692_14930)">
<path d="M39.3172 14.9876H34.0678L32.7837 18.4836H30.4766L35.6165 5.42383H37.8038L43.0637 18.4871H40.633L39.3207 14.9911L39.3172 14.9876ZM34.7275 13.2133H38.6469L37.2428 9.47142C37.0488 8.95493 36.8618 8.38574 36.6749 7.76034C36.5055 8.31196 36.3221 8.87763 36.1245 9.45385L34.7311 13.2133H34.7275Z" fill="#252D37"/>
<path d="M44.371 11.2567C44.371 10.5364 44.3463 9.74239 44.2969 8.87807H46.3924C46.4735 9.28564 46.5264 9.69672 46.5582 10.1113C47.426 9.16969 48.4244 8.69537 49.5462 8.69537C50.1812 8.69185 50.8092 8.8605 51.356 9.18374C51.9486 9.55618 52.4178 10.0973 52.7036 10.7332C53.0458 11.4359 53.2151 12.3319 53.2151 13.4246C53.2433 14.4259 53.0422 15.4237 52.6295 16.3373C52.2838 17.0962 51.7123 17.7321 50.9961 18.1643C50.2588 18.5894 49.4192 18.8037 48.569 18.7862C47.9023 18.7862 47.239 18.6737 46.6076 18.4524V22.4719L44.3745 22.6616V11.2497L44.371 11.2567ZM50.2482 16.2248C50.7033 15.6135 50.9326 14.7246 50.9291 13.551C50.9291 12.4654 50.7421 11.6748 50.3647 11.1829C50.0154 10.7051 49.451 10.431 48.8583 10.4486C48.4385 10.4486 48.0222 10.5505 47.6553 10.7578C47.2673 10.9791 46.911 11.2532 46.604 11.58V16.7905C46.851 16.9064 47.112 16.9943 47.3802 17.047C47.6694 17.1102 47.9622 17.1419 48.2586 17.1419C49.1264 17.1419 49.7896 16.8362 50.2447 16.2283" fill="#252D37"/>
<path d="M54.871 11.2567C54.871 10.5364 54.8463 9.74234 54.7969 8.87802H56.8924C56.9735 9.28558 57.03 9.69666 57.0652 10.1113C57.9295 9.16964 58.9244 8.69531 60.0497 8.69531C60.6847 8.69531 61.3092 8.86045 61.856 9.18369C62.4486 9.55612 62.9178 10.0972 63.2036 10.7332C63.5458 11.4359 63.7151 12.3318 63.7151 13.4245C63.7433 14.4259 63.5422 15.4237 63.1295 16.3372C62.7802 17.0961 62.2123 17.7321 61.4961 18.1642C60.7588 18.5894 59.9192 18.8037 59.069 18.7861C58.4023 18.7861 57.739 18.6737 57.1076 18.4523V22.4718L54.8745 22.6615V11.2496L54.871 11.2567ZM60.7482 16.2248C61.2033 15.6134 61.4326 14.7245 61.4291 13.551C61.4291 12.4653 61.2421 11.6748 60.8647 11.1829C60.5154 10.705 59.951 10.431 59.3583 10.4486C58.9385 10.4486 58.5293 10.554 58.1624 10.7577C57.7743 10.9791 57.418 11.2531 57.1111 11.5799V16.7904C57.358 16.9064 57.6191 16.9942 57.8872 17.0469C58.1765 17.1102 58.4693 17.1418 58.7656 17.1418C59.6335 17.1418 60.2967 16.8361 60.7518 16.2283" fill="#252D37"/>
<path d="M68.1952 17.8734C67.2392 17.3498 66.463 16.5557 65.9692 15.586C65.4294 14.4933 65.1613 13.2881 65.1895 12.069C65.1895 10.6038 65.4894 9.36004 66.0891 8.33409C66.6535 7.33977 67.5037 6.53872 68.5303 6.02575C69.6063 5.49872 70.7916 5.23521 71.9911 5.25278C72.7178 5.25278 73.441 5.33359 74.1501 5.49872C74.8133 5.65683 75.4554 5.88521 76.0657 6.18034L75.4942 7.89842C74.4394 7.36788 73.2752 7.07626 72.0899 7.05166C71.2538 7.03409 70.4283 7.23436 69.6945 7.63139C69.003 8.02842 68.4457 8.62227 68.0964 9.33903C67.6942 10.1893 67.5002 11.1239 67.5249 12.062C67.5108 12.9088 67.659 13.7484 67.9659 14.539C68.2411 15.2346 68.7244 15.832 69.3488 16.2431C69.9802 16.6647 70.774 16.8719 71.7335 16.8719C72.171 16.8719 72.6049 16.8368 73.0353 16.763C73.4516 16.6963 73.8608 16.5909 74.2594 16.4468V13.8117H71.2291V12.083H76.4326V17.5817C75.6776 17.9331 74.8874 18.2 74.076 18.3827C73.2717 18.569 72.4462 18.6604 71.6207 18.6639C70.4318 18.6955 69.2535 18.4214 68.1987 17.8698" fill="#252D37"/>
<path d="M84.748 18.5193C84.6633 18.0942 84.6139 17.662 84.5928 17.2263C84.2188 17.6585 83.7602 18.0134 83.2487 18.2663C82.6701 18.5579 82.0281 18.7055 81.379 18.695C80.8463 18.702 80.3206 18.5896 79.8408 18.3647C79.3822 18.1504 79.0012 17.8025 78.7437 17.3704C78.458 16.8785 78.3168 16.3198 78.338 15.7542C78.3063 14.8828 78.6837 14.0466 79.3611 13.495C80.0419 12.9328 81.1814 12.6517 82.7724 12.6517C83.3651 12.6517 83.9578 12.6939 84.5469 12.7782V12.5885C84.5469 11.7277 84.3635 11.1234 83.9966 10.772C83.6297 10.4207 83.1005 10.2485 82.4126 10.245C81.8975 10.2485 81.3825 10.3188 80.8851 10.4523C80.3947 10.5717 79.9149 10.7369 79.4563 10.9477L79.1035 9.32443C79.6115 9.11011 80.1372 8.94146 80.6769 8.82903C81.3543 8.67795 82.0457 8.60416 82.7407 8.60768C83.478 8.5866 84.2118 8.7166 84.8926 8.99065C85.4959 9.25768 85.9862 9.72497 86.279 10.3117C86.6107 10.9336 86.7765 11.7698 86.7765 12.8239V16.6888C86.7765 17.0928 86.8011 17.7042 86.8505 18.5193H84.748ZM83.4074 16.7169C83.8378 16.5201 84.2259 16.2355 84.5469 15.8877V14.0852C84.0495 14.0255 83.5521 13.9939 83.0511 13.9869C82.1268 13.9869 81.4883 14.1344 81.1355 14.4331C80.7828 14.7317 80.5887 15.1744 80.6064 15.6347C80.6064 16.1161 80.7334 16.4709 80.9909 16.7028C81.2837 16.9488 81.6577 17.0717 82.0351 17.0506C82.5114 17.0436 82.977 16.9312 83.4039 16.7169" fill="#252D37"/>
<path d="M88.8828 16.141V4.65185L91.1088 4.47266V15.744C91.1088 16.1586 91.1794 16.4537 91.3205 16.6224C91.4934 16.8051 91.7438 16.9 91.9943 16.8789C92.1954 16.8683 92.393 16.8367 92.5835 16.7805L92.8445 18.3756C92.594 18.467 92.333 18.5337 92.0719 18.5759C91.7862 18.6251 91.4969 18.6497 91.2076 18.6532C89.6589 18.6532 88.8828 17.8135 88.8828 16.1375" fill="#252D37"/>
<path d="M94.5781 16.141V4.65185L96.8042 4.47266V15.744C96.8042 16.1586 96.8747 16.4537 97.0194 16.6224C97.1922 16.8051 97.4392 16.9 97.6932 16.8789C97.8942 16.8683 98.0918 16.8367 98.2823 16.7805L98.5433 18.3756C98.2929 18.467 98.0318 18.5337 97.7672 18.5759C97.4815 18.6251 97.1922 18.6497 96.9029 18.6497C95.3542 18.6497 94.5781 17.81 94.5781 16.134" fill="#252D37"/>
<path d="M107.987 13.9418H101.602C101.704 15.9796 102.678 16.9985 104.526 16.9985C104.999 16.9985 105.472 16.9423 105.934 16.8299C106.406 16.721 106.869 16.5698 107.313 16.3836L107.803 17.9085C106.653 18.4496 105.394 18.7237 104.12 18.7026C103.08 18.7026 102.205 18.5058 101.496 18.1158C100.794 17.7363 100.233 17.1425 99.8906 16.4258C99.5131 15.5931 99.3261 14.6866 99.3543 13.7766C99.3297 12.8209 99.5237 11.8687 99.9258 11.0009C100.268 10.2666 100.818 9.65172 101.51 9.22659C102.219 8.80848 103.034 8.59767 103.859 8.61172C104.678 8.58361 105.489 8.80848 106.174 9.25821C106.791 9.68686 107.271 10.2842 107.553 10.9763C107.86 11.7282 108.012 12.5363 108.001 13.3479L107.994 13.9453L107.987 13.9418ZM105.807 12.5258C105.764 11.7494 105.567 11.1696 105.218 10.7831C104.858 10.3931 104.346 10.1788 103.813 10.2034C103.281 10.1894 102.766 10.4036 102.399 10.7901C102.021 11.1801 101.774 11.7599 101.662 12.5294H105.807V12.5258Z" fill="#252D37"/>
<path d="M110.426 11.2309C110.426 10.6968 110.401 9.88169 110.352 8.78547H112.447C112.482 9.05601 112.518 9.38277 112.546 9.7552C112.574 10.1276 112.599 10.4333 112.613 10.6687C112.839 10.2893 113.093 9.93088 113.378 9.59358C113.625 9.30547 113.922 9.06304 114.257 8.88034C114.61 8.69412 115.001 8.59926 115.4 8.60628C115.7 8.59926 115.996 8.6379 116.285 8.7152L116.007 10.6441C115.77 10.5739 115.527 10.5422 115.28 10.5457C114.793 10.5352 114.31 10.6722 113.904 10.9428C113.414 11.3082 112.987 11.7544 112.645 12.2639V18.5109H110.419V11.2309H110.426Z" fill="#252D37"/>
<path d="M117.625 22.5855C117.353 22.5398 117.081 22.4766 116.82 22.3923L117.226 20.769C117.378 20.8112 117.568 20.8498 117.798 20.892C118.013 20.9307 118.231 20.9482 118.45 20.9517C119.441 20.9517 120.182 20.3193 120.676 19.0509L120.821 18.689L117.219 8.88281H119.611L121.421 14.3639C121.657 15.0701 121.844 15.7904 121.989 16.5177C122.158 15.815 122.359 15.1123 122.588 14.4061L124.423 8.88281H126.677L123.086 18.7347C122.818 19.5288 122.447 20.2877 121.989 20.9904C121.639 21.5209 121.163 21.9601 120.602 22.2623C120.002 22.5539 119.339 22.6979 118.669 22.6769C118.316 22.6769 117.967 22.6488 117.618 22.5925" fill="#252D37"/>
<path fill-rule="evenodd" clip-rule="evenodd" d="M18.384 0.101562H7.40207C2.22683 0.101562 0.335938 2.04805 0.335938 7.37452V18.6775C0.335938 24.0005 2.22683 25.9505 7.40207 25.9505H18.3805C23.5522 25.9505 25.4502 24.0005 25.4502 18.6775V7.37452C25.4502 2.04805 23.5558 0.101562 18.384 0.101562Z" fill="#C91430"/>
<path d="M5.31021 13.0656H5.97696V16.3367H5.31021V15.0086H3.80738V16.3367H3.14062V13.0656H3.80738V14.3832H5.31021V13.0656ZM9.06376 14.9313C9.06376 15.4654 8.79917 15.7464 8.31587 15.7464C7.83256 15.7464 7.56445 15.4548 7.56445 14.9067V13.0621H6.89771V14.9278C6.89771 15.8483 7.40923 16.3754 8.30528 16.3754C9.20134 16.3754 9.72698 15.8378 9.72698 14.9067V13.0586H9.06023V14.9278L9.06376 14.9313ZM16.7614 15.3108L16.017 13.0621H15.4737L14.7294 15.3108L14.0026 13.0621H13.2936L14.4401 16.3297H14.9904L15.7348 14.1829L16.4827 16.3297H17.0365L18.1795 13.0621H17.4846L16.7614 15.3108ZM19.3719 14.9243H20.5855V14.3305H19.3719V13.6594H21.1323V13.0621H18.7158V16.3262H21.1958V15.7324H19.3719V14.9208V14.9243ZM21.9895 16.3262H22.6492V13.0656H21.9895V16.3262ZM11.0464 15.6481L10.7465 16.3297H10.0656L11.512 13.0621H12.0976L13.537 16.3297H12.842L12.5457 15.6481H11.0393H11.0464ZM11.2933 15.0578H12.2987L11.7943 13.8948L11.2933 15.0578Z" fill="white"/>
<path d="M12.8992 8.71626C10.592 8.71626 8.72228 6.85057 8.71875 4.55273H9.31142C9.31142 6.52733 10.9201 8.12599 12.8992 8.12599C14.8783 8.12599 16.4869 6.52382 16.4869 4.55273H17.0761C17.0761 6.85057 15.2028 8.71275 12.8956 8.71626" fill="white"/>
</g>
</g>
<defs>
<clipPath id="clip0_692_14930">
<rect width="127" height="26" fill="white"/>
</clipPath>
</defs>
</svg>
