<svg width="120" height="26" viewBox="0 0 120 26" fill="none" xmlns="http://www.w3.org/2000/svg">
<g clip-path="url(#clip0_692_14908)">
<path d="M17.6269 14.1323C17.6533 12.1637 18.7029 10.34 20.4094 9.3111C19.3296 7.792 17.5816 6.8634 15.6976 6.80396C13.7154 6.59968 11.7937 7.97027 10.7819 7.97027C9.77 7.97027 8.19564 6.82254 6.52308 6.85596C4.31818 6.92654 2.31338 8.13 1.24114 10.0243C-1.04304 13.9131 0.659713 19.6294 2.84951 22.7717C3.94441 24.3094 5.22431 26.0291 6.89686 25.9697C8.53543 25.9028 9.14707 24.9408 11.1216 24.9408C13.0962 24.9408 13.655 25.9697 15.3616 25.9288C17.1171 25.8991 18.2271 24.3837 19.2805 22.8274C20.0659 21.7317 20.6699 20.5171 21.0739 19.2357C18.9861 18.3666 17.6306 16.3571 17.6269 14.1248V14.1323Z" fill="#252D37"/>
<path d="M14.2073 4.13413C15.1663 3.00127 15.6383 1.54898 15.525 0.078125C14.0601 0.230411 12.7085 0.917557 11.7382 2.00584C10.7792 3.07927 10.2921 4.48327 10.3866 5.90956C11.8703 5.92441 13.2786 5.27069 14.2073 4.13041V4.13413Z" fill="#252D37"/>
<path d="M42.6748 18.055H37.3022L36.011 21.8027H33.7344L38.8238 7.93359H41.1872L46.2767 21.8027H43.9622L42.671 18.055H42.6748ZM37.8572 16.3241H42.116L40.0169 10.2401H39.9564L37.8572 16.3241Z" fill="#252D37"/>
<path d="M58.1764 17.5675C58.1764 20.7097 56.466 22.7303 53.8874 22.7303C52.5546 22.7972 51.2974 22.11 50.6518 20.9623H50.6027V25.9692H48.4922V12.5123H50.5348V14.1949H50.5725C51.2445 13.0509 52.5018 12.3637 53.8458 12.4083C56.4548 12.4083 58.1726 14.4363 58.1726 17.5712L58.1764 17.5675ZM56.0093 17.5675C56.0093 15.5209 54.9332 14.1726 53.2946 14.1726C51.656 14.1726 50.5989 15.5469 50.5989 17.5675C50.5989 19.588 51.6825 20.9697 53.2946 20.9697C54.9068 20.9697 56.0093 19.6326 56.0093 17.5675Z" fill="#252D37"/>
<path d="M69.5358 17.5675C69.5358 20.7097 67.8255 22.7303 65.2468 22.7303C63.9141 22.7972 62.6568 22.11 62.0112 20.9623H61.9621V25.9692H59.8516V12.5123H61.8941V14.1949H61.9319C62.6039 13.0509 63.8612 12.3637 65.2053 12.4083C67.8141 12.4083 69.5358 14.4363 69.5358 17.5712V17.5675ZM67.3648 17.5675C67.3648 15.5209 66.2888 14.1726 64.6503 14.1726C63.0117 14.1726 61.9546 15.5469 61.9546 17.5675C61.9546 19.588 63.0381 20.9697 64.6503 20.9697C66.2624 20.9697 67.3648 19.6326 67.3648 17.5675Z" fill="#252D37"/>
<path d="M76.7694 18.17C76.9237 19.5442 78.2829 20.4469 80.1408 20.4469C81.9979 20.4469 83.1987 19.5442 83.1987 18.3037C83.1987 17.2266 82.4287 16.584 80.6015 16.142L78.7737 15.7074C76.1837 15.0909 74.9837 13.9022 74.9837 11.9671C74.9837 9.57514 77.1015 7.92969 80.1108 7.92969C83.1194 7.92969 85.1322 9.57514 85.2001 11.9671H83.0708C82.9422 10.5817 81.7794 9.74596 80.0801 9.74596C78.3815 9.74596 77.2187 10.5929 77.2187 11.8222C77.2187 12.8029 77.9622 13.3786 79.7779 13.8206L81.3301 14.1957C84.2222 14.868 85.4229 16.012 85.4229 18.04C85.4229 20.6362 83.3237 22.2594 79.9822 22.2594C76.8558 22.2594 74.7458 20.6734 74.6094 18.1626H76.7694V18.17Z" fill="#252D37"/>
<path d="M89.5823 10.1699V12.5619H91.538V14.2073H89.5823V19.7825C89.5823 20.6479 89.9709 21.0527 90.8316 21.0527C91.0659 21.049 91.2966 21.0342 91.5266 21.0045V22.6387C91.1416 22.7093 90.7487 22.7427 90.3559 22.7353C88.2759 22.7353 87.4645 21.9665 87.4645 20.0053V14.2073H85.9688V12.5619H87.4645V10.1699H89.5859H89.5823Z" fill="#252D37"/>
<path d="M92.7734 17.5838C92.7734 14.4006 94.6763 12.4023 97.6477 12.4023C100.619 12.4023 102.526 14.4006 102.526 17.5838C102.526 20.767 100.638 22.7652 97.6477 22.7652C94.657 22.7652 92.7734 20.7743 92.7734 17.5838ZM100.373 17.5838C100.373 15.3998 99.3577 14.1146 97.6477 14.1146C95.937 14.1146 94.9213 15.411 94.9213 17.5838C94.9213 19.7566 95.937 21.053 97.6477 21.053C99.3577 21.053 100.373 19.7752 100.373 17.5838Z" fill="#252D37"/>
<path d="M104.125 12.5097H106.137V14.2294H106.186C106.466 13.1225 107.5 12.3574 108.659 12.402C108.901 12.402 109.146 12.428 109.38 12.48V14.4225C109.074 14.3297 108.754 14.2889 108.433 14.2963C107.814 14.2703 107.213 14.5154 106.79 14.9612C106.367 15.4069 106.164 16.016 106.235 16.6214V22.62H104.125V12.5097Z" fill="#252D37"/>
<path d="M119.078 19.6673C118.795 21.5022 116.978 22.7613 114.653 22.7613C111.663 22.7613 109.805 20.789 109.805 17.6282C109.805 14.4673 111.67 12.3984 114.562 12.3984C117.454 12.3984 119.195 14.3187 119.195 17.3867V18.0962H111.935V18.2224C111.866 18.9764 112.13 19.7193 112.659 20.269C113.188 20.8187 113.932 21.1159 114.698 21.0862C115.721 21.179 116.688 20.6033 117.073 19.6636H119.074L119.078 19.6673ZM111.945 16.6513H117.084C117.122 15.9753 116.873 15.3142 116.393 14.8276C115.914 14.341 115.249 14.0699 114.562 14.0847C113.868 14.081 113.203 14.3484 112.712 14.8313C112.221 15.3142 111.945 15.9679 111.945 16.6513Z" fill="#252D37"/>
</g>
<defs>
<clipPath id="clip0_692_14908">
<rect width="120" height="26" fill="white"/>
</clipPath>
</defs>
</svg>
