<svg width="149" height="36" viewBox="0 0 149 36" fill="none" xmlns="http://www.w3.org/2000/svg">
<path d="M18.4666 18.5008L14.0391 14.0732V13.8573V13.7493L18.4666 9.32178L18.5746 9.42977L23.866 12.4534C25.3778 13.3173 25.3778 14.7212 23.866 15.5851L18.4666 18.5008Z" fill="url(#paint0_linear_2002_551)"/>
<path d="M18.573 18.3929L14.0376 13.8574L0.539062 27.3559C1.079 27.8959 1.83492 27.8959 2.80681 27.4639L18.573 18.3929Z" fill="url(#paint1_linear_2002_551)"/>
<path d="M18.573 9.32238L2.80681 0.359379C1.83492 -0.180563 1.079 -0.0725726 0.539062 0.467367L14.0376 13.8579L18.573 9.32238Z" fill="url(#paint2_linear_2002_551)"/>
<path opacity="0.2" d="M18.4651 18.2852L2.80681 27.1402C1.94291 27.6801 1.18699 27.5721 0.647051 27.1402L0.539062 27.2482L0.647051 27.3561C1.18699 27.7881 1.94291 27.8961 2.80681 27.3561L18.4651 18.2852Z" fill="black"/>
<path opacity="0.12" d="M0.541327 27.1398C0.217363 26.8158 0.109375 26.2759 0.109375 25.6279V25.7359C0.109375 26.3838 0.325351 26.9238 0.649315 27.2477V27.1398H0.541327Z" fill="black"/>
<path opacity="0.12" d="M23.8642 15.2613L18.4648 18.2849L18.5728 18.3929L23.8642 15.3693C24.6202 14.9373 24.9441 14.3974 24.9441 13.8574C24.9441 14.3974 24.5122 14.8293 23.8642 15.2613Z" fill="black"/>
<path opacity="0.25" d="M2.80907 0.466939L23.8667 12.4536C24.5147 12.8856 24.9466 13.3175 24.9466 13.8575C24.9466 13.3175 24.6226 12.7776 23.8667 12.3456L2.80907 0.358951C1.29724 -0.504953 0.109375 0.250963 0.109375 1.97877V2.08676C0.109375 0.358951 1.29724 -0.396965 2.80907 0.466939Z" fill="#252D37"/>
<path d="M0.53994 0.358887C0.215976 0.682851 0 1.22279 0 1.87072V25.736C0 26.384 0.215976 26.9239 0.53994 27.2479L0.647928 27.3559L14.0384 13.9654V13.8574V13.7494L0.53994 0.358887Z" fill="url(#paint3_linear_2002_551)"/>
<path d="M40.8789 11.0938C40.4336 11.0938 40.0215 11.043 39.6426 10.9414C39.2637 10.8398 38.9219 10.6875 38.6172 10.4844C38.3125 10.2812 38.0586 10.0156 37.8555 9.6875C37.6523 9.35938 37.5156 8.98047 37.4453 8.55078L38.4414 8.29883C38.5508 8.92773 38.8184 9.39648 39.2441 9.70508C39.6699 10.0098 40.2188 10.1621 40.8906 10.1621C41.5625 10.1621 42.1035 10.0098 42.5137 9.70508C42.9277 9.40039 43.1348 8.96875 43.1348 8.41016C43.1348 7.90234 42.9746 7.50977 42.6543 7.23242C42.3379 6.95117 41.8691 6.81055 41.248 6.81055H39.8828V5.87891H41.2246C41.7676 5.87891 42.1836 5.74805 42.4727 5.48633C42.7617 5.2207 42.9062 4.8457 42.9062 4.36133C42.9062 3.88867 42.7188 3.51563 42.3438 3.24219C41.9727 2.96484 41.4746 2.82617 40.8496 2.82617C40.2871 2.82617 39.8008 2.96094 39.3906 3.23047C38.9844 3.49609 38.7324 3.89063 38.6348 4.41406L37.6738 4.19727C37.8418 3.45508 38.2148 2.88867 38.793 2.49805C39.375 2.10352 40.0605 1.90625 40.8496 1.90625C41.8027 1.90625 42.5547 2.125 43.1055 2.5625C43.6602 3.01172 43.9375 3.58789 43.9375 4.29102C43.9375 4.72461 43.8281 5.11523 43.6094 5.46289C43.3906 5.81055 43.084 6.08398 42.6895 6.2832C43.1582 6.44336 43.5215 6.71289 43.7793 7.0918C44.0371 7.4707 44.166 7.91797 44.166 8.43359C44.166 9.23828 43.8633 9.88281 43.2578 10.3672C42.6562 10.8516 41.8633 11.0938 40.8789 11.0938ZM50.3945 11H49.5332L49.5039 9.85742C49.2578 10.2441 48.9375 10.5469 48.543 10.7656C48.1523 10.9844 47.7305 11.0938 47.2773 11.0938C46.7188 11.0938 46.2676 10.9473 45.9238 10.6543C45.584 10.3613 45.4141 9.96484 45.4141 9.46484C45.4141 8.89844 45.6309 8.4707 46.0645 8.18164C46.4824 7.9082 47.0508 7.67969 47.7695 7.49609L49.4805 7.09766C49.4414 6.67578 49.2852 6.35547 49.0117 6.13672C48.7422 5.91406 48.3906 5.80273 47.957 5.80273C47.5156 5.80273 47.1504 5.9043 46.8613 6.10742C46.5762 6.31055 46.3828 6.60547 46.2812 6.99219L45.4141 6.82227C45.5273 6.26367 45.8164 5.82031 46.2812 5.49219C46.7461 5.16406 47.3164 5 47.9922 5C48.7305 5 49.3145 5.20312 49.7441 5.60938C50.1777 6.01172 50.3945 6.56055 50.3945 7.25586V11ZM46.3867 9.38281C46.3867 9.65625 46.4766 9.87695 46.6562 10.0449C46.8398 10.209 47.0898 10.291 47.4062 10.291C47.9688 10.291 48.457 10.084 48.8711 9.66992C49.2852 9.25586 49.4922 8.69531 49.4922 7.98828V7.85352L47.7695 8.27539C47.3008 8.39648 46.9531 8.54102 46.7266 8.70898C46.5 8.87695 46.3867 9.10156 46.3867 9.38281ZM53.1836 11H52.2461V5.09375H56.1719V5.91406H53.1836V11ZM57.3906 13.6426V5.09375H58.293L58.3164 6.11328C58.5664 5.76172 58.875 5.48828 59.2422 5.29297C59.6133 5.09766 60.0234 5 60.4727 5C61.293 5 61.9766 5.28711 62.5234 5.86133C63.0703 6.43555 63.3438 7.16016 63.3438 8.03516C63.3438 8.91797 63.0703 9.64844 62.5234 10.2266C61.9766 10.8047 61.293 11.0938 60.4727 11.0938C60.0273 11.0938 59.6211 11 59.2539 10.8125C58.8867 10.6211 58.5781 10.3516 58.3281 10.0039V13.6426H57.3906ZM60.3438 5.86133C59.7461 5.86133 59.2617 6.0625 58.8906 6.46484C58.5156 6.88281 58.3281 7.40625 58.3281 8.03516C58.3281 8.67188 58.5156 9.19922 58.8906 9.61719C59.2578 10.0273 59.7422 10.2324 60.3438 10.2324C60.9258 10.2324 61.4102 10.0273 61.7969 9.61719C62.1719 9.19922 62.3594 8.67188 62.3594 8.03516C62.3594 7.40625 62.1719 6.88281 61.7969 6.46484C61.4062 6.0625 60.9219 5.86133 60.3438 5.86133ZM66.4434 10.9531L63.8711 5.09375H64.9316L66.959 9.75195L68.793 5.09375H69.7891L66.3438 13.6426H65.3594L66.4434 10.9531ZM72.7246 11.0938C72.084 11.0938 71.5469 10.9688 71.1133 10.7188C70.6836 10.4648 70.3848 10.082 70.2168 9.57031L71.1074 9.25977C71.2051 9.60742 71.3984 9.86523 71.6875 10.0332C71.9805 10.1973 72.3301 10.2793 72.7363 10.2793C73.1816 10.2793 73.5371 10.1934 73.8027 10.0215C74.0684 9.8457 74.2012 9.58789 74.2012 9.24805C74.2012 8.9668 74.0977 8.74805 73.8906 8.5918C73.6875 8.43555 73.4316 8.35742 73.123 8.35742H72.0449V7.55469H73.0527C73.3457 7.55469 73.584 7.48047 73.7676 7.33203C73.9551 7.17969 74.0488 6.9668 74.0488 6.69336C74.0488 6.41992 73.9336 6.20312 73.7031 6.04297C73.4727 5.88281 73.1465 5.80273 72.7246 5.80273C72.3105 5.80273 71.9707 5.88867 71.7051 6.06055C71.4395 6.23242 71.2676 6.47852 71.1895 6.79883L70.3047 6.54688C70.4492 6.06641 70.7324 5.68945 71.1543 5.41602C71.5762 5.13867 72.1035 5 72.7363 5C73.4316 5 73.9824 5.14844 74.3887 5.44531C74.7988 5.74219 75.0039 6.13281 75.0039 6.61719C75.0039 6.91406 74.9219 7.17773 74.7578 7.4082C74.5938 7.63867 74.3613 7.80469 74.0605 7.90625C74.4199 8 74.6973 8.16406 74.8926 8.39844C75.0879 8.63281 75.1855 8.93164 75.1855 9.29492C75.1855 9.68945 75.0723 10.0254 74.8457 10.3027C74.6191 10.5762 74.3242 10.7773 73.9609 10.9062C73.5977 11.0312 73.1855 11.0938 72.7246 11.0938ZM77.6172 11H76.7148V5.09375H77.6172V9.61719L80.7578 5.09375H81.6602V11H80.7578V6.47656L77.6172 11ZM85.8848 11H84.9355V5.91406H82.8848V5.09375H87.9355V5.91406H85.8848V11ZM88.6914 8.01172C88.6914 7.14062 88.9707 6.42188 89.5293 5.85547C90.0879 5.28516 90.793 5 91.6445 5C92.4883 5 93.1719 5.25586 93.6953 5.76758C94.2227 6.2832 94.4863 6.94727 94.4863 7.75977C94.4863 7.76367 94.4746 7.92383 94.4512 8.24023H89.6523C89.7031 8.90039 89.9043 9.40234 90.2559 9.74609C90.6113 10.0859 91.082 10.2559 91.668 10.2559C92.1875 10.2559 92.6113 10.1465 92.9395 9.92773C93.2676 9.70508 93.4844 9.39844 93.5898 9.00781L94.4512 9.17773C94.3262 9.75586 94.0098 10.2207 93.502 10.5723C92.9941 10.9199 92.3828 11.0938 91.668 11.0938C90.7695 11.0938 90.0488 10.8066 89.5059 10.2324C88.9629 9.6543 88.6914 8.91406 88.6914 8.01172ZM92.9746 6.26562C92.6191 5.95703 92.1758 5.80273 91.6445 5.80273C91.1133 5.80273 90.6641 5.95898 90.2969 6.27148C89.9297 6.58008 89.7227 6.97656 89.6758 7.46094H93.5547C93.5234 6.97266 93.3301 6.57422 92.9746 6.26562ZM101.424 11H98.6406V5.09375H101.307C101.842 5.09375 102.27 5.22852 102.59 5.49805C102.91 5.76758 103.07 6.13672 103.07 6.60547C103.07 6.91406 102.992 7.18359 102.836 7.41406C102.684 7.64062 102.473 7.80469 102.203 7.90625C102.562 8 102.84 8.16992 103.035 8.41602C103.234 8.6582 103.334 8.9668 103.334 9.3418C103.334 9.85352 103.148 10.2578 102.777 10.5547C102.41 10.8516 101.959 11 101.424 11ZM101.172 5.87891H99.5664V7.57812H101.23C101.523 7.57812 101.748 7.50195 101.904 7.34961C102.064 7.19727 102.145 6.98633 102.145 6.7168C102.145 6.1582 101.82 5.87891 101.172 5.87891ZM99.5664 10.209H101.207C101.586 10.209 101.873 10.1289 102.068 9.96875C102.264 9.80859 102.361 9.57617 102.361 9.27148C102.361 8.97852 102.268 8.75195 102.08 8.5918C101.896 8.42773 101.635 8.3457 101.295 8.3457H99.5664V10.209Z" fill="#002354"/>
<path d="M65.7234 23.0059C63.1702 23.0059 61.1489 24.9231 61.1489 27.5858C61.1489 30.142 63.1702 32.1657 65.7234 32.1657C68.2766 32.1657 70.2979 30.2485 70.2979 27.5858C70.2979 24.8166 68.2766 23.0059 65.7234 23.0059ZM65.7234 30.2485C64.3404 30.2485 63.1702 29.0769 63.1702 27.4793C63.1702 25.8817 64.3404 24.7101 65.7234 24.7101C67.1064 24.7101 68.2766 25.7751 68.2766 27.4793C68.2766 29.0769 67.1064 30.2485 65.7234 30.2485ZM55.8298 23.0059C53.2766 23.0059 51.2553 24.9231 51.2553 27.5858C51.2553 30.142 53.2766 32.1657 55.8298 32.1657C58.383 32.1657 60.4043 30.2485 60.4043 27.5858C60.4043 24.8166 58.383 23.0059 55.8298 23.0059ZM55.8298 30.2485C54.4468 30.2485 53.2766 29.0769 53.2766 27.4793C53.2766 25.8817 54.4468 24.7101 55.8298 24.7101C57.2128 24.7101 58.383 25.7751 58.383 27.4793C58.383 29.0769 57.2128 30.2485 55.8298 30.2485ZM44.0213 24.3905V26.3077H48.5957C48.4894 27.3728 48.0638 28.2249 47.5319 28.7574C46.8936 29.3965 45.8298 30.142 44.0213 30.142C41.1489 30.142 39.0213 27.9053 39.0213 25.0296C39.0213 22.1538 41.2553 19.9172 44.0213 19.9172C45.5106 19.9172 46.6809 20.5562 47.5319 21.3018L48.9149 19.9172C47.7447 18.8521 46.2553 18 44.1277 18C40.2979 18 37 21.1953 37 25.0296C37 28.8639 40.2979 32.0592 44.1277 32.0592C46.2553 32.0592 47.7447 31.4201 49.0213 30.0355C50.2979 28.7574 50.7234 26.9467 50.7234 25.5621C50.7234 25.1361 50.7234 24.7101 50.617 24.3905H44.0213ZM92.3191 25.8817C91.8936 24.8166 90.8298 23.0059 88.4894 23.0059C86.1489 23.0059 84.234 24.8166 84.234 27.5858C84.234 30.142 86.1489 32.1657 88.7021 32.1657C90.7234 32.1657 92 30.8876 92.4255 30.142L90.9362 29.0769C90.4043 29.8225 89.766 30.355 88.7021 30.355C87.6383 30.355 87 29.929 86.4681 28.9704L92.5319 26.4142L92.3191 25.8817ZM86.1489 27.3728C86.1489 25.6686 87.5319 24.7101 88.4894 24.7101C89.234 24.7101 89.9787 25.1361 90.1915 25.6686L86.1489 27.3728ZM81.1489 31.7396H83.1702V18.426H81.1489V31.7396ZM77.9574 23.9645C77.4255 23.432 76.5745 22.8994 75.5106 22.8994C73.2766 22.8994 71.1489 24.9231 71.1489 27.4793C71.1489 30.0355 73.1702 31.9527 75.5106 31.9527C76.5745 31.9527 77.4255 31.4201 77.8511 30.8876H77.9574V31.5266C77.9574 33.2308 77 34.1894 75.5106 34.1894C74.3404 34.1894 73.4894 33.3373 73.2766 32.5917L71.5745 33.3373C72.1064 34.5089 73.383 36 75.617 36C77.9575 36 79.8723 34.6154 79.8723 31.3136V23.2189H77.9574V23.9645ZM75.617 30.2485C74.234 30.2485 73.0638 29.0769 73.0638 27.4793C73.0638 25.8817 74.234 24.7101 75.617 24.7101C77 24.7101 78.0638 25.8817 78.0638 27.4793C78.0638 29.0769 77 30.2485 75.617 30.2485ZM101.574 18.426H96.7872V31.7396H98.8085V26.7337H101.574C103.809 26.7337 105.936 25.1361 105.936 22.5799C105.936 20.0237 103.809 18.426 101.574 18.426ZM101.681 24.8166H98.8085V20.2367H101.681C103.17 20.2367 104.021 21.5148 104.021 22.4734C103.915 23.645 103.064 24.8166 101.681 24.8166ZM113.915 22.8994C112.426 22.8994 110.936 23.5385 110.404 24.9231L112.213 25.6686C112.638 24.9231 113.277 24.7101 114.021 24.7101C115.085 24.7101 116.043 25.3491 116.149 26.4142V26.5207C115.83 26.3077 114.979 25.9882 114.128 25.9882C112.213 25.9882 110.298 27.0533 110.298 28.9704C110.298 30.7811 111.894 31.9527 113.596 31.9527C114.979 31.9527 115.617 31.3136 116.149 30.6746H116.255V31.7396H118.17V26.6272C117.957 24.284 116.149 22.8994 113.915 22.8994ZM113.702 30.2485C113.064 30.2485 112.106 29.929 112.106 29.0769C112.106 28.0118 113.277 27.6923 114.234 27.6923C115.085 27.6923 115.511 27.9053 116.043 28.1183C115.83 29.3965 114.766 30.2485 113.702 30.2485ZM124.872 23.2189L122.638 28.9704H122.532L120.191 23.2189H118.064L121.574 31.3136L119.553 35.787H121.574L127 23.2189H124.872ZM107 31.7396H109.021V18.426H107V31.7396Z" fill="#252D37"/>
<defs>
<linearGradient id="paint0_linear_2002_551" x1="25.8469" y1="13.8588" x2="-0.282838" y2="13.8588" gradientUnits="userSpaceOnUse">
<stop stop-color="#FFE000"/>
<stop offset="0.4087" stop-color="#FFBD00"/>
<stop offset="0.7754" stop-color="#FFA500"/>
<stop offset="1" stop-color="#FF9C00"/>
</linearGradient>
<linearGradient id="paint1_linear_2002_551" x1="16.1185" y1="16.3369" x2="-1.12223" y2="45.2823" gradientUnits="userSpaceOnUse">
<stop stop-color="#FF3A44"/>
<stop offset="1" stop-color="#C31162"/>
</linearGradient>
<linearGradient id="paint2_linear_2002_551" x1="-2.81148" y1="-7.54944" x2="4.8265" y2="5.3937" gradientUnits="userSpaceOnUse">
<stop stop-color="#32A071"/>
<stop offset="0.0685" stop-color="#2DA771"/>
<stop offset="0.4762" stop-color="#15CF74"/>
<stop offset="0.8009" stop-color="#06E775"/>
<stop offset="1" stop-color="#00F076"/>
</linearGradient>
<linearGradient id="paint3_linear_2002_551" x1="12.8502" y1="1.66522" x2="-8.60449" y2="7.46658" gradientUnits="userSpaceOnUse">
<stop stop-color="#00A0FF"/>
<stop offset="0.00657445" stop-color="#00A1FF"/>
<stop offset="0.2601" stop-color="#00BEFF"/>
<stop offset="0.5122" stop-color="#00D2FF"/>
<stop offset="0.7604" stop-color="#00DFFF"/>
<stop offset="1" stop-color="#00E3FF"/>
</linearGradient>
</defs>
</svg>
