<svg width="131" height="37" viewBox="0 0 131 37" fill="none" xmlns="http://www.w3.org/2000/svg">
<path d="M17.5397 17.2762C17.5656 15.3255 18.6199 13.5235 20.333 12.5017C19.2474 10.9975 17.494 10.078 15.6021 10.0206C13.6117 9.81793 11.682 11.1761 10.6677 11.1761C9.6338 11.1761 8.07213 10.0407 6.39046 10.0743C4.17783 10.1437 2.16506 11.3345 1.08857 13.2111C-1.2038 17.0614 0.506103 22.7201 2.70205 25.8325C3.80073 27.3565 5.08476 29.0588 6.76492 28.9984C8.40905 28.9323 9.0231 27.9815 11.0077 27.9815C12.9738 27.9815 13.5499 28.9984 15.2643 28.9601C17.0284 28.9323 18.14 27.4293 19.2002 25.8909C19.9895 24.805 20.5969 23.6048 21 22.3348C18.9046 21.475 17.5421 19.4832 17.5397 17.2762Z" fill="#252D37"/>
<path d="M15.2013 7.091C16.2378 5.86202 16.7485 4.28237 16.6248 2.6875C15.0413 2.85178 13.5784 3.59931 12.5279 4.78113C11.4906 5.94717 10.9651 7.47266 11.0672 9.0216C12.672 9.03792 14.1956 8.32636 15.2013 7.091Z" fill="#252D37"/>
<path d="M41.8789 11.0938C41.4336 11.0938 41.0215 11.043 40.6426 10.9414C40.2637 10.8398 39.9219 10.6875 39.6172 10.4844C39.3125 10.2812 39.0586 10.0156 38.8555 9.6875C38.6523 9.35938 38.5156 8.98047 38.4453 8.55078L39.4414 8.29883C39.5508 8.92773 39.8184 9.39648 40.2441 9.70508C40.6699 10.0098 41.2188 10.1621 41.8906 10.1621C42.5625 10.1621 43.1035 10.0098 43.5137 9.70508C43.9277 9.40039 44.1348 8.96875 44.1348 8.41016C44.1348 7.90234 43.9746 7.50977 43.6543 7.23242C43.3379 6.95117 42.8691 6.81055 42.248 6.81055H40.8828V5.87891H42.2246C42.7676 5.87891 43.1836 5.74805 43.4727 5.48633C43.7617 5.2207 43.9062 4.8457 43.9062 4.36133C43.9062 3.88867 43.7188 3.51563 43.3438 3.24219C42.9727 2.96484 42.4746 2.82617 41.8496 2.82617C41.2871 2.82617 40.8008 2.96094 40.3906 3.23047C39.9844 3.49609 39.7324 3.89063 39.6348 4.41406L38.6738 4.19727C38.8418 3.45508 39.2148 2.88867 39.793 2.49805C40.375 2.10352 41.0605 1.90625 41.8496 1.90625C42.8027 1.90625 43.5547 2.125 44.1055 2.5625C44.6602 3.01172 44.9375 3.58789 44.9375 4.29102C44.9375 4.72461 44.8281 5.11523 44.6094 5.46289C44.3906 5.81055 44.084 6.08398 43.6895 6.2832C44.1582 6.44336 44.5215 6.71289 44.7793 7.0918C45.0371 7.4707 45.166 7.91797 45.166 8.43359C45.166 9.23828 44.8633 9.88281 44.2578 10.3672C43.6562 10.8516 42.8633 11.0938 41.8789 11.0938ZM51.3945 11H50.5332L50.5039 9.85742C50.2578 10.2441 49.9375 10.5469 49.543 10.7656C49.1523 10.9844 48.7305 11.0938 48.2773 11.0938C47.7188 11.0938 47.2676 10.9473 46.9238 10.6543C46.584 10.3613 46.4141 9.96484 46.4141 9.46484C46.4141 8.89844 46.6309 8.4707 47.0645 8.18164C47.4824 7.9082 48.0508 7.67969 48.7695 7.49609L50.4805 7.09766C50.4414 6.67578 50.2852 6.35547 50.0117 6.13672C49.7422 5.91406 49.3906 5.80273 48.957 5.80273C48.5156 5.80273 48.1504 5.9043 47.8613 6.10742C47.5762 6.31055 47.3828 6.60547 47.2812 6.99219L46.4141 6.82227C46.5273 6.26367 46.8164 5.82031 47.2812 5.49219C47.7461 5.16406 48.3164 5 48.9922 5C49.7305 5 50.3145 5.20312 50.7441 5.60938C51.1777 6.01172 51.3945 6.56055 51.3945 7.25586V11ZM47.3867 9.38281C47.3867 9.65625 47.4766 9.87695 47.6562 10.0449C47.8398 10.209 48.0898 10.291 48.4062 10.291C48.9688 10.291 49.457 10.084 49.8711 9.66992C50.2852 9.25586 50.4922 8.69531 50.4922 7.98828V7.85352L48.7695 8.27539C48.3008 8.39648 47.9531 8.54102 47.7266 8.70898C47.5 8.87695 47.3867 9.10156 47.3867 9.38281ZM54.1836 11H53.2461V5.09375H57.1719V5.91406H54.1836V11ZM58.3906 13.6426V5.09375H59.293L59.3164 6.11328C59.5664 5.76172 59.875 5.48828 60.2422 5.29297C60.6133 5.09766 61.0234 5 61.4727 5C62.293 5 62.9766 5.28711 63.5234 5.86133C64.0703 6.43555 64.3438 7.16016 64.3438 8.03516C64.3438 8.91797 64.0703 9.64844 63.5234 10.2266C62.9766 10.8047 62.293 11.0938 61.4727 11.0938C61.0273 11.0938 60.6211 11 60.2539 10.8125C59.8867 10.6211 59.5781 10.3516 59.3281 10.0039V13.6426H58.3906ZM61.3438 5.86133C60.7461 5.86133 60.2617 6.0625 59.8906 6.46484C59.5156 6.88281 59.3281 7.40625 59.3281 8.03516C59.3281 8.67188 59.5156 9.19922 59.8906 9.61719C60.2578 10.0273 60.7422 10.2324 61.3438 10.2324C61.9258 10.2324 62.4102 10.0273 62.7969 9.61719C63.1719 9.19922 63.3594 8.67188 63.3594 8.03516C63.3594 7.40625 63.1719 6.88281 62.7969 6.46484C62.4062 6.0625 61.9219 5.86133 61.3438 5.86133ZM67.4434 10.9531L64.8711 5.09375H65.9316L67.959 9.75195L69.793 5.09375H70.7891L67.3438 13.6426H66.3594L67.4434 10.9531ZM73.7246 11.0938C73.084 11.0938 72.5469 10.9688 72.1133 10.7188C71.6836 10.4648 71.3848 10.082 71.2168 9.57031L72.1074 9.25977C72.2051 9.60742 72.3984 9.86523 72.6875 10.0332C72.9805 10.1973 73.3301 10.2793 73.7363 10.2793C74.1816 10.2793 74.5371 10.1934 74.8027 10.0215C75.0684 9.8457 75.2012 9.58789 75.2012 9.24805C75.2012 8.9668 75.0977 8.74805 74.8906 8.5918C74.6875 8.43555 74.4316 8.35742 74.123 8.35742H73.0449V7.55469H74.0527C74.3457 7.55469 74.584 7.48047 74.7676 7.33203C74.9551 7.17969 75.0488 6.9668 75.0488 6.69336C75.0488 6.41992 74.9336 6.20312 74.7031 6.04297C74.4727 5.88281 74.1465 5.80273 73.7246 5.80273C73.3105 5.80273 72.9707 5.88867 72.7051 6.06055C72.4395 6.23242 72.2676 6.47852 72.1895 6.79883L71.3047 6.54688C71.4492 6.06641 71.7324 5.68945 72.1543 5.41602C72.5762 5.13867 73.1035 5 73.7363 5C74.4316 5 74.9824 5.14844 75.3887 5.44531C75.7988 5.74219 76.0039 6.13281 76.0039 6.61719C76.0039 6.91406 75.9219 7.17773 75.7578 7.4082C75.5938 7.63867 75.3613 7.80469 75.0605 7.90625C75.4199 8 75.6973 8.16406 75.8926 8.39844C76.0879 8.63281 76.1855 8.93164 76.1855 9.29492C76.1855 9.68945 76.0723 10.0254 75.8457 10.3027C75.6191 10.5762 75.3242 10.7773 74.9609 10.9062C74.5977 11.0312 74.1855 11.0938 73.7246 11.0938ZM78.6172 11H77.7148V5.09375H78.6172V9.61719L81.7578 5.09375H82.6602V11H81.7578V6.47656L78.6172 11ZM86.8848 11H85.9355V5.91406H83.8848V5.09375H88.9355V5.91406H86.8848V11ZM89.6914 8.01172C89.6914 7.14062 89.9707 6.42188 90.5293 5.85547C91.0879 5.28516 91.793 5 92.6445 5C93.4883 5 94.1719 5.25586 94.6953 5.76758C95.2227 6.2832 95.4863 6.94727 95.4863 7.75977C95.4863 7.76367 95.4746 7.92383 95.4512 8.24023H90.6523C90.7031 8.90039 90.9043 9.40234 91.2559 9.74609C91.6113 10.0859 92.082 10.2559 92.668 10.2559C93.1875 10.2559 93.6113 10.1465 93.9395 9.92773C94.2676 9.70508 94.4844 9.39844 94.5898 9.00781L95.4512 9.17773C95.3262 9.75586 95.0098 10.2207 94.502 10.5723C93.9941 10.9199 93.3828 11.0938 92.668 11.0938C91.7695 11.0938 91.0488 10.8066 90.5059 10.2324C89.9629 9.6543 89.6914 8.91406 89.6914 8.01172ZM93.9746 6.26562C93.6191 5.95703 93.1758 5.80273 92.6445 5.80273C92.1133 5.80273 91.6641 5.95898 91.2969 6.27148C90.9297 6.58008 90.7227 6.97656 90.6758 7.46094H94.5547C94.5234 6.97266 94.3301 6.57422 93.9746 6.26562ZM102.424 11H99.6406V5.09375H102.307C102.842 5.09375 103.27 5.22852 103.59 5.49805C103.91 5.76758 104.07 6.13672 104.07 6.60547C104.07 6.91406 103.992 7.18359 103.836 7.41406C103.684 7.64062 103.473 7.80469 103.203 7.90625C103.562 8 103.84 8.16992 104.035 8.41602C104.234 8.6582 104.334 8.9668 104.334 9.3418C104.334 9.85352 104.148 10.2578 103.777 10.5547C103.41 10.8516 102.959 11 102.424 11ZM102.172 5.87891H100.566V7.57812H102.23C102.523 7.57812 102.748 7.50195 102.904 7.34961C103.064 7.19727 103.145 6.98633 103.145 6.7168C103.145 6.1582 102.82 5.87891 102.172 5.87891ZM100.566 10.209H102.207C102.586 10.209 102.873 10.1289 103.068 9.96875C103.264 9.80859 103.361 9.57617 103.361 9.27148C103.361 8.97852 103.268 8.75195 103.08 8.5918C102.896 8.42773 102.635 8.3457 102.295 8.3457H100.566V10.209Z" fill="#002354"/>
<path d="M46.4743 27.6312H41.3807L40.1575 31.1987H38L42.8246 18H45.0661L49.8907 31.1987H47.6964L46.4743 27.6312ZM41.9082 25.985H45.9457L43.9554 20.1952H43.8996L41.9082 25.985Z" fill="#252D37"/>
<path d="M61.1696 27.1653C61.1696 30.1557 59.5491 32.077 57.1037 32.077C55.8397 32.1423 54.6491 31.4883 54.0383 30.3934H53.992V35.1597H51.9922V22.3534H53.9279V23.9539H53.9647C54.6026 22.8658 55.7945 22.2122 57.0669 22.2528C59.5397 22.2528 61.1696 24.1834 61.1696 27.1653ZM59.1141 27.1653C59.1141 25.2171 58.0947 23.9362 56.5394 23.9362C55.0114 23.9362 53.9836 25.2441 53.9836 27.1653C53.9836 29.1043 55.0114 30.4027 56.5394 30.4027C58.0947 30.4027 59.1141 29.1312 59.1141 27.1653Z" fill="#252D37"/>
<path d="M71.9279 27.1653C71.9279 30.1557 70.3069 32.077 67.8615 32.077C66.5975 32.1423 65.4069 31.4883 64.7961 30.3934H64.7498V35.1597H62.75V22.3534H64.6857V23.9539H64.7225C65.3604 22.8658 66.5523 22.2122 67.8247 22.2528C70.2975 22.2528 71.9279 24.1834 71.9279 27.1653ZM69.8719 27.1653C69.8719 25.2171 68.8525 23.9362 67.2972 23.9362C65.7692 23.9362 64.7414 25.2441 64.7414 27.1653C64.7414 29.1043 65.7692 30.4027 67.2972 30.4027C68.8525 30.4027 69.8719 29.1312 69.8719 27.1653Z" fill="#252D37"/>
<path d="M78.7894 27.7413C78.9375 29.0501 80.2249 29.9095 81.984 29.9095C83.6696 29.9095 84.8824 29.0501 84.8824 27.8699C84.8824 26.8455 84.1509 26.232 82.4191 25.8117L80.6873 25.3996C78.2335 24.8142 77.0943 23.6807 77.0943 21.8414C77.0943 19.5642 79.1036 18 81.9557 18C84.7805 18 86.7162 19.5642 86.7814 21.8414H84.7626C84.6418 20.5243 83.5393 19.7292 81.9284 19.7292C80.3173 19.7292 79.215 20.5337 79.215 21.7044C79.215 22.6376 79.9191 23.1867 81.6415 23.607L83.1137 23.9641C85.8555 24.6045 86.9936 25.6923 86.9936 27.6229C86.9936 30.0921 85.0032 31.6387 81.8358 31.6387C78.8723 31.6387 76.8714 30.1285 76.7422 27.7412L78.7894 27.7413Z" fill="#252D37"/>
<path d="M90.9259 20.1255V22.4028H92.7786V23.9669H90.9259V29.272C90.9259 30.096 91.2968 30.4802 92.1112 30.4802C92.3312 30.4763 92.5508 30.4611 92.7691 30.4345V31.9893C92.4029 32.0568 92.0308 32.0874 91.6584 32.0806C89.6859 32.0806 88.9166 31.3488 88.9166 29.4827V23.9669H87.5V22.4028H88.9166V20.1255H90.9259Z" fill="#252D37"/>
<path d="M93.957 27.1813C93.957 24.1535 95.7624 22.251 98.5778 22.251C101.403 22.251 103.2 24.1535 103.2 27.1813C103.2 30.2173 101.412 32.1115 98.5778 32.1115C95.7445 32.1115 93.957 30.2173 93.957 27.1813ZM101.162 27.1813C101.162 25.1044 100.198 23.8784 98.5777 23.8784C96.9573 23.8784 95.9937 25.1136 95.9937 27.1813C95.9937 29.2665 96.9573 30.483 98.5777 30.483C100.198 30.483 101.162 29.2665 101.162 27.1813Z" fill="#252D37"/>
<path d="M104.719 22.3533H106.626V23.9912H106.672C106.938 22.9368 107.917 22.2112 109.016 22.2527C109.246 22.2518 109.476 22.2766 109.701 22.3263V24.1739C109.41 24.0861 109.107 24.0457 108.802 24.0545C108.215 24.031 107.646 24.2624 107.245 24.688C106.844 25.1137 106.652 25.691 106.719 26.2685V31.9762H104.719V22.3533Z" fill="#252D37"/>
<path d="M118.89 29.1658C118.621 30.9127 116.899 32.1115 114.695 32.1115C111.861 32.1115 110.102 30.236 110.102 27.2269C110.102 24.2086 111.87 22.251 114.611 22.251C117.306 22.251 119.001 24.0799 119.001 26.9975V27.6743H112.12V27.7936C112.056 28.5101 112.306 29.2192 112.808 29.7407C113.309 30.2622 114.014 30.5458 114.741 30.5193C115.712 30.6092 116.627 30.0587 116.991 29.1658H118.89ZM112.13 26.2938H117.001C117.037 25.65 116.8 25.0206 116.346 24.557C115.892 24.0934 115.264 23.8376 114.611 23.8514C113.953 23.8476 113.321 24.1034 112.855 24.5621C112.389 25.0207 112.128 25.6441 112.13 26.2938Z" fill="#252D37"/>
</svg>
