<svg width="115" height="26" viewBox="0 0 115 26" fill="none" xmlns="http://www.w3.org/2000/svg">
<g clip-path="url(#clip0_692_14919)">
<mask id="mask0_692_14919" style="mask-type:luminance" maskUnits="userSpaceOnUse" x="0" y="0" width="115" height="26">
<path d="M114.688 0H0V26H114.688V0Z" fill="white"/>
</mask>
<g mask="url(#mask0_692_14919)">
<path d="M56.0513 12.2065C53.6083 12.2065 51.6742 14.0539 51.6742 16.6196C51.6742 19.1855 53.6083 21.0328 56.0513 21.0328C58.4944 21.0328 60.4285 19.1855 60.4285 16.6196C60.4285 14.0539 58.4944 12.2065 56.0513 12.2065ZM56.0513 19.1855C54.728 19.1855 53.6083 18.0565 53.6083 16.517C53.6083 14.9776 54.728 13.8486 56.0513 13.8486C57.3747 13.8486 58.4944 14.8749 58.4944 16.517C58.4944 18.0565 57.3747 19.1855 56.0513 19.1855ZM46.5845 12.2065C44.1415 12.2065 42.2074 14.0539 42.2074 16.6196C42.2074 19.1855 44.1415 21.0328 46.5845 21.0328C49.0276 21.0328 50.9617 19.1855 50.9617 16.6196C50.9617 14.0539 49.0276 12.2065 46.5845 12.2065ZM46.5845 19.1855C45.2611 19.1855 44.1415 18.0565 44.1415 16.517C44.1415 14.9776 45.2611 13.8486 46.5845 13.8486C47.9078 13.8486 49.0276 14.8749 49.0276 16.517C49.0276 18.0565 47.9078 19.1855 46.5845 19.1855ZM35.2888 13.5407V15.3881H39.6659C39.5641 16.4144 39.1569 17.2355 38.6479 17.7486C38.0372 18.3644 37.0192 19.0828 35.2888 19.0828C32.5403 19.0828 30.5044 16.9276 30.5044 14.1565C30.5044 11.3855 32.6421 9.23015 35.2888 9.23015C36.7138 9.23015 37.8336 9.846 38.6479 10.5644L39.9713 9.23015C38.8515 8.20385 37.4264 7.38281 35.3905 7.38281C31.7259 7.38281 28.5703 10.4618 28.5703 14.1565C28.5703 17.8513 31.7259 20.9302 35.3905 20.9302C37.4264 20.9302 38.8515 20.3144 40.073 18.9802C41.2946 17.7486 41.7018 16.0038 41.7018 14.6696C41.7018 14.2591 41.7018 13.8486 41.6 13.5407H35.2888ZM81.4968 14.9776C81.0891 13.9513 80.0715 12.2065 77.8321 12.2065C75.5928 12.2065 73.7604 13.9513 73.7604 16.6196C73.7604 19.0828 75.5928 21.0328 78.0356 21.0328C79.9697 21.0328 81.1908 19.8013 81.5986 19.0828L80.1733 18.0565C79.6645 18.7749 79.0532 19.2881 78.0356 19.2881C77.0174 19.2881 76.4068 18.8776 75.898 17.9538L81.7003 15.4907L81.4968 14.9776ZM75.5928 16.4144C75.5928 14.7723 76.9156 13.8486 77.8321 13.8486C78.5444 13.8486 79.2567 14.2591 79.461 14.7723L75.5928 16.4144ZM70.8081 20.6223H72.7422V7.79677H70.8081V20.6223ZM67.7543 13.1301C67.2453 12.617 66.431 12.1039 65.413 12.1039C63.2754 12.1039 61.2394 14.0539 61.2394 16.517C61.2394 18.9801 63.1735 20.8276 65.413 20.8276C66.431 20.8276 67.2453 20.3144 67.6525 19.8013H67.7543V20.417C67.7543 22.0591 66.8381 22.9828 65.413 22.9828C64.2933 22.9828 63.4789 22.1618 63.2754 21.4433L61.6466 22.1618C62.1556 23.2907 63.3771 24.7276 65.5148 24.7276C67.6525 24.7276 69.5866 23.3933 69.5866 20.2118V12.4118H67.7543V13.1301ZM65.5148 19.1855C64.1915 19.1855 63.0718 18.0565 63.0718 16.517C63.0718 14.9776 64.1915 13.8486 65.5148 13.8486C66.8381 13.8486 67.8561 14.9776 67.8561 16.517C67.8561 18.0565 66.8381 19.1855 65.5148 19.1855ZM90.349 7.79677H85.7685V20.6223H87.7026V15.7986H90.349C92.4866 15.7986 94.5225 14.2591 94.5225 11.796C94.5225 9.33281 92.4866 7.79333 90.349 7.79333V7.79677ZM90.4508 13.9513H87.7026V9.53807H90.4508C91.8761 9.53807 92.6908 10.7696 92.6908 11.6933C92.5884 12.8223 91.7743 13.9513 90.4508 13.9513ZM102.157 12.1039C100.732 12.1039 99.3072 12.7196 98.7984 14.0539L100.529 14.7723C100.936 14.0539 101.547 13.8486 102.259 13.8486C103.277 13.8486 104.193 14.4644 104.295 15.4907V15.5933C103.989 15.3881 103.175 15.0802 102.361 15.0802C100.529 15.0802 98.6966 16.1065 98.6966 17.9538C98.6966 19.6986 100.223 20.8276 101.852 20.8276C103.175 20.8276 103.786 20.2118 104.295 19.596H104.397V20.6223H106.229V15.696C106.025 13.4381 104.295 12.1039 102.157 12.1039ZM101.954 19.1855C101.343 19.1855 100.427 18.8776 100.427 18.0565C100.427 17.0301 101.547 16.7223 102.463 16.7223C103.277 16.7223 103.684 16.9276 104.193 17.1328C103.989 18.3644 102.972 19.1855 101.954 19.1855ZM112.639 12.4118L110.501 17.9538H110.399L108.16 12.4118H106.124L109.483 20.2118L107.549 24.5223H109.483L114.675 12.4152H112.639V12.4118ZM95.5407 20.6223H97.4748V7.79677H95.5407V20.6223Z" fill="#252D37"/>
<path opacity="0.12" d="M0.516552 25.2377C0.211169 24.9297 0.109375 24.4166 0.109375 23.8008V23.9034C0.109375 24.5192 0.312964 25.0324 0.618347 25.3403V25.2377H0.516552Z" fill="#1F2B4D"/>
<path d="M10.7357 12.4531L0.101562 23.6845C0.220322 24.1121 0.43409 24.5055 0.729292 24.834C1.02111 25.1658 1.38757 25.4223 1.79474 25.59C2.20192 25.7576 2.64302 25.8261 3.08074 25.7953C3.51845 25.7645 3.94599 25.631 4.32602 25.4087L16.2903 18.5392L10.7357 12.4531Z" fill="#E84435"/>
<path d="M21.4894 10.5432L16.3148 7.55664L10.4922 12.7087L16.3386 18.5246L21.4724 15.5687C21.9271 15.3292 22.3071 14.9666 22.5752 14.5253C22.8398 14.084 22.9824 13.5742 22.9824 13.0577C22.9824 12.5411 22.8433 12.0314 22.5752 11.5901C22.3105 11.1487 21.9271 10.7861 21.4724 10.5466H21.4894V10.5432Z" fill="#FABB13"/>
<path d="M0.10282 2.36914C0.0383504 2.60861 0.0078125 2.85493 0.0078125 3.10467V22.9502C0.0078125 23.1999 0.0417435 23.4462 0.10282 23.6857L11.1 12.7417L0.10282 2.37256V2.36914Z" fill="#517CBE"/>
<path d="M10.8171 13.0267L16.3174 7.55296L4.36674 0.649293C3.91885 0.382452 3.40648 0.242188 2.88394 0.242188C2.2562 0.242188 1.64205 0.447451 1.13986 0.830608C0.637679 1.21377 0.274613 1.75087 0.101562 2.35982L10.8137 13.0267H10.8171Z" fill="#30A754"/>
</g>
</g>
<defs>
<clipPath id="clip0_692_14919">
<rect width="115" height="26" fill="white"/>
</clipPath>
</defs>
</svg>
