<svg width="40" height="26" viewBox="0 0 40 26" fill="none" xmlns="http://www.w3.org/2000/svg">
<mask id="mask0_2002_810" style="mask-type:luminance" maskUnits="userSpaceOnUse" x="2" y="3" width="36" height="21">
<path d="M37.1973 3H2V23.5317H37.1973V3Z" fill="white"/>
</mask>
<g mask="url(#mask0_2002_810)">
<path d="M37.1965 13.2659C37.1965 18.8989 32.4855 23.5317 26.6373 23.5317C20.8433 23.5317 16.0781 18.8989 16.0781 13.2659C16.0781 7.6328 20.7891 3 26.5832 3C32.4855 3 37.1965 7.6328 37.1965 13.2659Z" fill="#9DABBF"/>
<path d="M23.0642 13.3185C23.0642 12.5815 22.9559 11.8444 22.8476 11.16H16.3497C16.4038 10.7915 16.5121 10.4757 16.6204 10.0545H22.4144C22.3061 9.68598 22.1437 9.31746 21.9812 8.94894H17.0536C17.216 8.58042 17.4326 8.26455 17.6492 7.84338H21.3856C21.169 7.47487 20.8982 7.10635 20.5733 6.73783H18.5156C18.8405 6.36931 19.1654 6.05344 19.5986 5.68492C17.7575 4.00026 15.2667 3 12.505 3C6.76517 3.15794 2 7.6328 2 13.2659C2 18.8989 6.71102 23.5317 12.5592 23.5317C15.3208 23.5317 17.7575 22.4788 19.6528 20.8468C20.0318 20.5309 20.3567 20.1624 20.7358 19.7413H18.5698C18.299 19.4254 18.0283 19.0569 17.8117 18.6884H21.4939C21.7105 18.3725 21.9271 18.004 22.0895 17.5828H17.1619C16.9994 17.2669 16.837 16.8984 16.7287 16.4772H22.5227C22.8476 15.5296 23.0642 14.4767 23.0642 13.3185Z" fill="#9DABBF"/>
<path d="M16.2964 15.8982L16.4588 14.9505C16.4047 14.9505 16.2964 15.0032 16.1881 15.0032C15.809 15.0032 15.7549 14.7926 15.809 14.6873L16.1339 12.7921H16.7296L16.892 11.7392H16.3505L16.4588 11.1074H15.3217C15.3217 11.1074 14.6719 14.6873 14.6719 15.1085C14.6719 15.7402 15.0509 16.0561 15.5924 16.0561C15.9173 16.0561 16.1881 15.9508 16.2964 15.8982Z" fill="white"/>
<path d="M16.6719 14.1615C16.6719 15.6882 17.7549 16.0567 18.6213 16.0567C19.4335 16.0567 19.8126 15.8988 19.8126 15.8988L20.0292 14.8458C20.0292 14.8458 19.4335 15.1091 18.8379 15.1091C17.5924 15.1091 17.809 14.2141 17.809 14.2141H20.0833C20.0833 14.2141 20.2458 13.5297 20.2458 13.2138C20.2458 12.5294 19.8667 11.6345 18.6213 11.6345C17.5383 11.5818 16.6719 12.7927 16.6719 14.1615ZM18.6213 12.5821C19.2169 12.5821 19.1086 13.2665 19.1086 13.3191H17.8632C17.9173 13.2665 18.0256 12.5821 18.6213 12.5821Z" fill="white"/>
<path d="M25.7193 15.8992L25.9359 14.6884C25.9359 14.6884 25.3944 14.9516 24.9612 14.9516C24.2032 14.9516 23.8241 14.3725 23.8241 13.6881C23.8241 12.372 24.4739 11.6876 25.2861 11.6876C25.8276 11.6876 26.315 12.0035 26.315 12.0035L26.4774 10.8453C26.4774 10.8453 25.8276 10.582 25.1778 10.582C23.8783 10.582 22.6328 11.6876 22.6328 13.7408C22.6328 15.1095 23.2826 16.0045 24.6363 16.0045C25.1237 16.0572 25.7193 15.8992 25.7193 15.8992Z" fill="white"/>
<path d="M10.1743 11.582C9.41624 11.582 8.8206 11.7926 8.8206 11.7926L8.65815 12.7402C8.65815 12.7402 9.14549 12.5297 9.90359 12.5297C10.2826 12.5297 10.6075 12.5823 10.6075 12.8982C10.6075 13.1088 10.5534 13.1614 10.5534 13.1614H10.066C9.09134 13.1614 8.0625 13.5299 8.0625 14.7934C8.0625 15.7937 8.7123 16.0043 9.14549 16.0043C9.90359 16.0043 10.2826 15.5304 10.3368 15.5304L10.2826 15.9516H11.2032L11.6364 12.9508C11.6364 11.6347 10.5534 11.582 10.1743 11.582ZM10.3909 14.0037C10.3909 14.1617 10.2826 15.0566 9.63284 15.0566C9.30794 15.0566 9.19964 14.7934 9.19964 14.6355C9.19964 14.3722 9.36209 14.0037 10.2285 14.0037C10.3368 14.0037 10.3909 14.0037 10.3909 14.0037Z" fill="white"/>
<path d="M12.7209 16.0042C12.9917 16.0042 14.3996 16.0568 14.3996 14.5827C14.3996 13.214 13.0458 13.4772 13.0458 12.9507C13.0458 12.6875 13.2624 12.5822 13.6415 12.5822C13.8039 12.5822 14.3996 12.6349 14.3996 12.6349L14.562 11.6346C14.562 11.6346 14.183 11.5293 13.479 11.5293C12.6668 11.5293 11.8004 11.8452 11.8004 12.9507C11.8004 14.2142 13.2083 14.1089 13.2083 14.5827C13.2083 14.8986 12.8292 14.9513 12.5585 14.9513C12.0711 14.9513 11.5296 14.7933 11.5296 14.7933L11.3672 15.7936C11.4755 15.8989 11.8004 16.0042 12.7209 16.0042Z" fill="white"/>
<path d="M35.0386 10.7383L34.822 12.2124C34.822 12.2124 34.3888 11.6859 33.739 11.6859C32.7101 11.6859 31.8438 12.8967 31.8438 14.3182C31.8438 15.2131 32.2769 16.1081 33.2516 16.1081C33.9014 16.1081 34.3346 15.687 34.3346 15.687L34.2805 16.0555H35.4176L36.2299 10.8436L35.0386 10.7383ZM34.4971 13.5811C34.4971 14.1602 34.2263 14.9499 33.5765 14.9499C33.1975 14.9499 32.9809 14.634 32.9809 14.0549C32.9809 13.16 33.3599 12.6335 33.9014 12.6335C34.2805 12.6862 34.4971 12.9494 34.4971 13.5811Z" fill="white"/>
<path d="M4.05174 15.9502L4.70154 12.0544L4.80984 15.9502H5.56793L7.02997 12.0544L6.43433 15.9502H7.62562L8.54616 10.7383H6.70507L5.56793 13.9497L5.51378 10.7383H3.88929L2.96875 15.9502H4.05174Z" fill="white"/>
<path d="M21.3861 15.9518C21.711 14.1618 21.7651 12.6878 22.5774 12.951C22.6857 12.2666 22.8481 11.9507 22.9564 11.6875H22.7398C22.2525 11.6875 21.8193 12.3192 21.8193 12.3192L21.9276 11.7401H20.8446L20.1406 15.9518H21.3861Z" fill="white"/>
<path d="M28.315 11.582C27.5569 11.582 26.9612 11.7926 26.9612 11.7926L26.7988 12.7402C26.7988 12.7402 27.2861 12.5297 28.0442 12.5297C28.4233 12.5297 28.7482 12.5823 28.7482 12.8982C28.7482 13.1088 28.694 13.1614 28.694 13.1614H28.2067C27.232 13.1614 26.2031 13.5299 26.2031 14.7934C26.2031 15.7937 26.8529 16.0043 27.2861 16.0043C28.0442 16.0043 28.4233 15.5304 28.4774 15.5304L28.4233 15.9516H29.4521L29.8853 12.9508C29.8853 11.6347 28.694 11.582 28.315 11.582ZM28.5857 14.0037C28.5857 14.1617 28.4774 15.0566 27.8276 15.0566C27.5027 15.0566 27.3944 14.7934 27.3944 14.6355C27.3944 14.3722 27.5569 14.0037 28.4233 14.0037C28.5316 14.0037 28.5316 14.0037 28.5857 14.0037Z" fill="white"/>
<path d="M30.7533 15.9518C31.0782 14.1618 31.1323 12.6878 31.9445 12.951C32.0528 12.2666 32.2153 11.9507 32.3236 11.6875H32.107C31.6196 11.6875 31.1865 12.3192 31.1865 12.3192L31.2948 11.7401H30.2118L29.5078 15.9518H30.7533Z" fill="white"/>
</g>
</svg>
