<svg width="50" height="15" viewBox="0 0 50 15" fill="none" xmlns="http://www.w3.org/2000/svg">
<mask id="mask0_2002_841" style="mask-type:luminance" maskUnits="userSpaceOnUse" x="3" y="1" width="44" height="14">
<path d="M47 1H3V14.2H47V1Z" fill="white"/>
</mask>
<g mask="url(#mask0_2002_841)">
<path d="M42.1113 1H33.7188C34.2076 3.805 36.8965 6.44501 39.8299 6.44501H46.5113C46.5928 6.19751 46.5928 5.785 46.5928 5.5375C46.5928 3.0625 44.5558 1 42.1113 1Z" fill="#9DABBF"/>
<path d="M34.4531 6.94141V13.7889H38.5272V10.1589H42.1124C44.0679 10.1589 45.7791 8.75641 46.3494 6.94141H34.4531Z" fill="#9DABBF"/>
<path d="M20.1094 1V13.705H23.6946C23.6946 13.705 24.5909 13.705 25.0797 12.7975C27.5242 7.93 28.2575 6.44501 28.2575 6.44501H28.7464V13.705H32.8205V1H29.2353C29.2353 1 28.339 1.0825 27.8501 1.90751C25.8131 6.11501 24.6723 8.26 24.6723 8.26H24.1834V1H20.1094Z" fill="#9DABBF"/>
<path d="M3 13.787V1.08203H7.07407C7.07407 1.08203 8.21482 1.08203 8.86667 2.89703C10.4963 7.68203 10.6593 8.34203 10.6593 8.34203C10.6593 8.34203 10.9852 7.18703 12.4519 2.89703C13.1037 1.08203 14.2444 1.08203 14.2444 1.08203H18.3185V13.787H14.2444V6.93953H13.7556L11.4741 13.787H9.68149L7.40002 6.93953H6.91113V13.787H3Z" fill="#9DABBF"/>
</g>
</svg>
