<svg width="108" height="26" viewBox="0 0 108 26" fill="none" xmlns="http://www.w3.org/2000/svg">
<g clip-path="url(#clip0_692_14948)">
<mask id="mask0_692_14948" style="mask-type:luminance" maskUnits="userSpaceOnUse" x="0" y="0" width="108" height="26">
<path d="M107.784 0H0V26H107.784V0Z" fill="white"/>
</mask>
<g mask="url(#mask0_692_14948)">
<path d="M40.0707 14.618C42.2064 14.0609 43.6136 12.3861 43.6136 10.2014C43.6136 7.49675 41.4945 5.5957 38.5271 5.5957H33.2344V20.1455H35.6761V14.797H37.406L41.1918 20.1455H44.0594L40.0674 14.6113L40.0707 14.618ZM38.5271 7.8682C40.054 7.8682 41.1119 8.82036 41.1119 10.2014C41.1119 11.5825 40.054 12.5346 38.5271 12.5346H35.6761V7.87157H38.5271V7.8682Z" fill="#252D37"/>
<path d="M49.5625 20.3499C50.8466 20.3499 52.0275 19.6678 52.6962 18.5332L53.1619 20.1405H54.9117V9.40625H52.5731V15.6193C52.5731 17.1455 51.5751 18.2193 50.2112 18.2193C48.8473 18.2193 47.9324 17.1455 47.9324 15.6193V9.40625H45.5938V15.886C45.5938 18.4691 47.3037 20.3465 49.5625 20.3465V20.3499Z" fill="#252D37"/>
<path d="M62.3793 20.3514C65.0872 20.3514 67.326 18.7846 67.326 16.1846C67.326 13.274 64.9874 12.4265 62.9714 11.7241C61.4046 11.1873 60.0406 10.6909 60.0406 9.39087C60.0406 8.25629 61.0786 7.65527 62.2995 7.65527C63.5836 7.65527 64.4984 8.33738 65.0074 9.49213L67.3294 9.10045C66.5975 6.82801 64.7446 5.38281 62.2197 5.38281C59.6947 5.38281 57.5423 6.90905 57.5423 9.50907C57.5423 12.4433 59.881 13.2436 61.8969 13.9257C63.4405 14.439 64.8277 14.9353 64.8277 16.2589C64.8277 17.4171 63.7898 18.0756 62.4026 18.0756C60.8125 18.0756 59.9608 17.3158 59.2056 15.9314L56.8438 16.3467C57.5356 18.8015 59.7346 20.3514 62.3793 20.3514Z" fill="#252D37"/>
<path d="M73.6871 18.0825C72.8916 18.0825 72.506 17.6908 72.506 16.8838V11.4778H75.6629V9.41469H72.506V6.31836H70.7558L70.1674 9.41469H68.4375V11.4778H70.1674V16.8838C70.1674 18.9875 71.3651 20.1457 73.6871 20.1457H75.6629L75.8658 18.0825H73.6871Z" fill="#252D37"/>
<path d="M82.5461 20.3507C85.8629 20.3507 88.2016 18.0378 88.2016 14.776C88.2016 11.5142 85.8629 9.20117 82.5461 9.20117C79.2292 9.20117 76.8906 11.5142 76.8906 14.776C76.8906 18.0378 79.2292 20.3507 82.5461 20.3507ZM82.5461 18.1863C80.6332 18.1863 79.3324 16.802 79.3324 14.7794C79.3324 12.7568 80.6332 11.3723 82.5461 11.3723C84.4589 11.3723 85.7598 12.7568 85.7598 14.7794C85.7598 16.802 84.4589 18.1863 82.5461 18.1863Z" fill="#252D37"/>
<path d="M92.5808 20.1444V13.8099C92.5808 12.4491 93.233 11.6826 94.6605 11.6826H96.0043L95.8014 9.41016H95.3521C94.108 9.41016 93.1533 9.7613 92.4417 10.96L91.9923 9.41016H90.2422V20.1444H92.5808Z" fill="#252D37"/>
<path d="M107.515 14.6535C107.515 11.5572 105.24 9.20703 102.02 9.20703C98.799 9.20703 96.5234 11.5402 96.5234 14.7818C96.5234 18.0233 98.8025 20.3566 102.02 20.3566C104.218 20.3566 106.294 19.3031 107.086 17.2603L104.887 16.8855C104.378 17.652 103.4 18.1888 102.162 18.1888C100.373 18.1888 99.1916 17.0746 98.9652 15.4234H107.472C107.495 15.1972 107.512 14.9506 107.512 14.6568M102.013 11.2701C103.476 11.2701 104.578 12.2223 104.963 13.5595H99.105C99.4914 12.175 100.592 11.2701 102.016 11.2701" fill="#252D37"/>
<path d="M2.05321 23.9168C3.83631 25.7233 6.69725 25.7233 12.4291 25.7233H13.4404C19.1722 25.7233 22.0365 25.7233 23.8163 23.9168C25.5994 22.1103 25.5994 19.203 25.5994 13.3818V12.3552C25.5994 6.53731 25.5994 3.62666 23.8163 1.82017C22.0365 0.0136714 19.1656 0.0136719 13.4404 0.0136719H12.4291C6.69725 0.0136719 3.82965 0.0136714 2.05321 1.82017C0.273438 3.63003 0.273438 6.54069 0.273438 12.3552V13.3818C0.273438 19.1996 0.273438 22.1103 2.05321 23.9168Z" fill="#376CB4"/>
<path fill-rule="evenodd" clip-rule="evenodd" d="M19.8273 17.1025L18.1174 16.6703C17.9111 16.6095 17.7647 16.4205 17.7581 16.2043L17.5452 9.81238C17.482 8.96485 16.8665 8.29285 16.2178 8.09364C16.1813 8.08015 16.1413 8.09364 16.1247 8.13081C16.1014 8.16461 16.1114 8.20846 16.1413 8.23214C16.2977 8.35701 16.7401 8.76563 16.7401 9.47136V17.8318C16.7401 18.6389 15.985 19.2332 15.2132 19.0373L13.4766 18.595C13.2837 18.5274 13.1473 18.3451 13.144 18.1324L12.9311 11.7405C12.8679 10.8929 12.2524 10.2209 11.6037 10.0217C11.5672 10.0082 11.5272 10.0217 11.5073 10.0589C11.484 10.0926 11.494 10.1365 11.5239 10.1601C11.6802 10.2851 12.1227 10.6936 12.1227 11.3994V19.7599C12.1227 20.5669 11.3709 21.1612 10.5991 20.9653L5.69226 19.7227C5.01029 19.5506 4.53125 18.9292 4.53125 18.2168V9.84611C4.53125 9.03912 5.28307 8.44485 6.05487 8.64069L9.14868 9.42406V7.91473C9.14868 7.10768 9.90053 6.51341 10.6723 6.70925L13.7661 7.49262V5.98328C13.7661 5.17626 14.5179 4.58198 15.2897 4.77782L20.1965 6.02042C20.8785 6.19263 21.3576 6.81392 21.3576 7.52642V15.897C21.3576 16.7041 20.6057 17.2983 19.834 17.1025" fill="white"/>
</g>
</g>
<defs>
<clipPath id="clip0_692_14948">
<rect width="108" height="26" fill="white"/>
</clipPath>
</defs>
</svg>
