<svg width="49" height="26" viewBox="0 0 49 26" fill="none" xmlns="http://www.w3.org/2000/svg">
<g clip-path="url(#clip0_2002_851)">
<mask id="mask0_2002_851" style="mask-type:luminance" maskUnits="userSpaceOnUse" x="3" y="2" width="48" height="23">
<path d="M50.7891 2H3.78906V24.381H50.7891V2Z" fill="white"/>
</mask>
<g mask="url(#mask0_2002_851)">
<path d="M45.0679 10.2894V15.6771H42.9988V11.8978H41.0066V15.6771H38.9375V10.2891L45.0679 10.2894Z" fill="#9DABBF"/>
<path fill-rule="evenodd" clip-rule="evenodd" d="M34.4833 16.0916C36.3355 16.0916 37.711 15.0112 37.711 13.3735C37.711 11.7883 36.6962 10.7591 35.0002 10.7591C34.2175 10.7591 33.5716 11.0212 33.0851 11.4734C33.2013 10.5387 34.0322 9.85628 34.9471 9.85628C35.1582 9.85628 36.7477 9.85309 36.7477 9.85309L37.6466 8.2168C37.6466 8.2168 35.651 8.26003 34.7233 8.26003C32.6036 8.29513 31.1719 10.128 31.1719 12.354C31.1719 14.9474 32.5683 16.0916 34.4833 16.0916ZM34.4946 12.2084C35.1823 12.2084 35.6591 12.6383 35.6591 13.3733C35.6591 14.0348 35.2354 14.5799 34.4946 14.5814C33.7859 14.5814 33.3091 14.0763 33.3091 13.3846C33.3091 12.6493 33.7859 12.2084 34.4946 12.2084Z" fill="#9DABBF"/>
<path d="M29.5254 13.8467C29.5254 13.8467 29.0548 14.1099 28.352 14.1598C27.5441 14.183 26.8242 13.6878 26.8242 12.8079C26.8242 11.9495 27.4595 11.4576 28.3317 11.4576C28.8665 11.4576 29.574 11.8174 29.574 11.8174C29.574 11.8174 30.0917 10.8954 30.3599 10.4343C29.8688 10.0731 29.2148 9.875 28.454 9.875C26.534 9.875 25.0469 11.09 25.0469 12.797C25.0469 14.5258 26.4446 15.7125 28.454 15.6767C29.0156 15.6564 29.7905 15.465 30.2627 15.1705L29.5254 13.8467Z" fill="#9DABBF"/>
<path d="M3.78906 6.87109L6.64682 11.7157V14.6707L3.79241 19.5057L3.78906 6.87109Z" fill="#9DABBF"/>
<path d="M14.7656 9.95402L17.4434 8.39743L22.9238 8.39258L14.7656 13.1325V9.95402Z" fill="#9DABBF"/>
<path d="M14.7399 6.84303L14.7551 13.257L11.8906 11.5878V2L14.7399 6.84303Z" fill="#9DABBF"/>
<path d="M22.9132 8.39179L17.4327 8.39664L14.7399 6.84303L11.8906 2L22.9132 8.39179Z" fill="#9DABBF"/>
<path d="M14.7551 19.5326V16.4207L11.8906 14.7832L11.8922 24.3805L14.7551 19.5326Z" fill="#9DABBF"/>
<path d="M17.4328 17.9901L6.64662 11.7157L3.78906 6.87109L22.9082 17.9838L17.4328 17.9901Z" fill="#9DABBF"/>
<path d="M11.8984 24.381L14.7609 19.5331L17.4321 17.9907L22.9075 17.9844L11.8984 24.381Z" fill="#9DABBF"/>
<path d="M3.79688 19.5059L11.9251 14.7835L9.19244 13.1934L6.65129 14.6709L3.79688 19.5059Z" fill="#9DABBF"/>
</g>
</g>
<defs>
<clipPath id="clip0_2002_851">
<rect width="49" height="26" fill="white"/>
</clipPath>
</defs>
</svg>
