<svg width="110" height="22" viewBox="0 0 110 22" fill="none" xmlns="http://www.w3.org/2000/svg">
<path d="M10.0489 2.92705C10.3483 2.00574 11.6517 2.00574 11.9511 2.92705L13.2451 6.90983C13.379 7.32185 13.763 7.60081 14.1962 7.60081H18.3839C19.3527 7.60081 19.7554 8.84043 18.9717 9.40983L15.5838 11.8713C15.2333 12.126 15.0866 12.5773 15.2205 12.9894L16.5146 16.9721C16.8139 17.8934 15.7595 18.6596 14.9757 18.0902L11.5878 15.6287C11.2373 15.374 10.7627 15.374 10.4122 15.6287L7.02426 18.0902C6.24054 18.6596 5.18607 17.8934 5.48542 16.9721L6.7795 12.9894C6.91338 12.5773 6.76672 12.126 6.41623 11.8713L3.02827 9.40983C2.24456 8.84043 2.64734 7.60081 3.61606 7.60081H7.8038C8.23703 7.60081 8.62099 7.32185 8.75486 6.90983L10.0489 2.92705Z" fill="#FF9D4D"/>
<path d="M32.0489 2.92705C32.3483 2.00574 33.6517 2.00574 33.9511 2.92705L35.2451 6.90983C35.379 7.32185 35.763 7.60081 36.1962 7.60081H40.3839C41.3527 7.60081 41.7554 8.84043 40.9717 9.40983L37.5838 11.8713C37.2333 12.126 37.0866 12.5773 37.2205 12.9894L38.5146 16.9721C38.8139 17.8934 37.7595 18.6596 36.9757 18.0902L33.5878 15.6287C33.2373 15.374 32.7627 15.374 32.4122 15.6287L29.0243 18.0902C28.2405 18.6596 27.1861 17.8934 27.4854 16.9721L28.7795 12.9894C28.9134 12.5773 28.7667 12.126 28.4162 11.8713L25.0283 9.40983C24.2446 8.84043 24.6473 7.60081 25.6161 7.60081H29.8038C30.237 7.60081 30.621 7.32185 30.7549 6.90983L32.0489 2.92705Z" fill="#FF9D4D"/>
<path d="M54.0489 2.92705C54.3483 2.00574 55.6517 2.00574 55.9511 2.92705L57.2451 6.90983C57.379 7.32185 57.763 7.60081 58.1962 7.60081H62.3839C63.3527 7.60081 63.7554 8.84043 62.9717 9.40983L59.5838 11.8713C59.2333 12.126 59.0866 12.5773 59.2205 12.9894L60.5146 16.9721C60.8139 17.8934 59.7595 18.6596 58.9757 18.0902L55.5878 15.6287C55.2373 15.374 54.7627 15.374 54.4122 15.6287L51.0243 18.0902C50.2405 18.6596 49.1861 17.8934 49.4854 16.9721L50.7795 12.9894C50.9134 12.5773 50.7667 12.126 50.4162 11.8713L47.0283 9.40983C46.2446 8.84043 46.6473 7.60081 47.6161 7.60081H51.8038C52.237 7.60081 52.621 7.32185 52.7549 6.90983L54.0489 2.92705Z" fill="#FF9D4D"/>
<path d="M76.0489 2.92705C76.3483 2.00574 77.6517 2.00574 77.9511 2.92705L79.2451 6.90983C79.379 7.32185 79.763 7.60081 80.1962 7.60081H84.3839C85.3527 7.60081 85.7554 8.84043 84.9717 9.40983L81.5838 11.8713C81.2333 12.126 81.0866 12.5773 81.2205 12.9894L82.5146 16.9721C82.8139 17.8934 81.7595 18.6596 80.9757 18.0902L77.5878 15.6287C77.2373 15.374 76.7627 15.374 76.4122 15.6287L73.0243 18.0902C72.2405 18.6596 71.1861 17.8934 71.4854 16.9721L72.7795 12.9894C72.9134 12.5773 72.7667 12.126 72.4162 11.8713L69.0283 9.40983C68.2446 8.84043 68.6473 7.60081 69.6161 7.60081H73.8038C74.237 7.60081 74.621 7.32185 74.7549 6.90983L76.0489 2.92705Z" fill="#FF9D4D"/>
<path d="M98.5244 3.08203C98.6741 2.62138 99.3259 2.62137 99.4756 3.08203L100.77 7.06445C100.97 7.68244 101.546 8.10059 102.196 8.10059H106.384C106.868 8.10059 107.069 8.72013 106.678 9.00488L103.29 11.4668C102.764 11.8487 102.544 12.5256 102.745 13.1436L104.039 17.127C104.188 17.5875 103.661 17.9702 103.27 17.6855L99.8818 15.2246C99.3561 14.8426 98.6439 14.8426 98.1182 15.2246L94.7305 17.6855C94.3387 17.9702 93.8116 17.5875 93.9609 17.127L95.2549 13.1436C95.4556 12.5256 95.2356 11.8487 94.71 11.4668L91.3223 9.00488C90.9306 8.72014 91.1319 8.10059 91.6162 8.10059H95.8037C96.4535 8.10059 97.0296 7.68244 97.2305 7.06445L98.5244 3.08203Z" stroke="#FF9D4D"/>
<g clip-path="url(#clip0_692_14892)">
<path d="M98.0489 2.92705C98.3483 2.00574 99.6517 2.00574 99.9511 2.92705L101.245 6.90983C101.379 7.32185 101.763 7.60081 102.196 7.60081H106.384C107.353 7.60081 107.755 8.84043 106.972 9.40983L103.584 11.8713C103.233 12.126 103.087 12.5773 103.22 12.9894L104.515 16.9721C104.814 17.8934 103.759 18.6596 102.976 18.0902L99.5878 15.6287C99.2373 15.374 98.7627 15.374 98.4122 15.6287L95.0243 18.0902C94.2405 18.6596 93.1861 17.8934 93.4854 16.9721L94.7795 12.9894C94.9134 12.5773 94.7667 12.126 94.4162 11.8713L91.0283 9.40983C90.2446 8.84043 90.6473 7.60081 91.6161 7.60081H95.8038C96.237 7.60081 96.621 7.32185 96.7549 6.90983L98.0489 2.92705Z" fill="#FF9D4D"/>
</g>
<defs>
<clipPath id="clip0_692_14892">
<rect width="11" height="22" fill="white" transform="translate(88)"/>
</clipPath>
</defs>
</svg>
