<svg width="55" height="20" viewBox="0 0 55 20" fill="none" xmlns="http://www.w3.org/2000/svg">
<mask id="mask0_2002_829" style="mask-type:luminance" maskUnits="userSpaceOnUse" x="2" y="2" width="48" height="15">
<path d="M50 2H2V16.9315H50V2Z" fill="white"/>
</mask>
<g mask="url(#mask0_2002_829)">
<path d="M46.3849 2.21289H43.3936C42.4893 2.21289 41.7936 2.4973 41.3762 3.42164L35.6719 16.7178H39.7067C39.7067 16.7178 40.4023 14.9403 40.5414 14.5136C40.9588 14.5136 44.924 14.5136 45.4806 14.5136C45.6197 15.0114 45.9675 16.6467 45.9675 16.6467H49.5849L46.3849 2.21289ZM41.6545 11.5273C42.0023 10.6741 43.1849 7.47448 43.1849 7.47448C43.1849 7.54558 43.5327 6.62125 43.6719 6.12353L43.9501 7.40338C43.9501 7.40338 44.7154 10.8874 44.8545 11.5984H41.6545V11.5273Z" fill="#9DABBF"/>
<path d="M35.9515 11.9544C35.9515 14.9407 33.308 16.9315 29.2037 16.9315C27.4645 16.9315 25.795 16.576 24.8906 16.1494L25.4471 12.8787L25.9341 13.092C27.1863 13.6608 28.0211 13.8741 29.5515 13.8741C30.6645 13.8741 31.8471 13.4475 31.8471 12.4521C31.8471 11.8121 31.3602 11.3855 29.8298 10.6745C28.3689 9.96348 26.4211 8.82584 26.4211 6.76387C26.4211 3.91977 29.1341 2 32.9602 2C34.4211 2 35.6732 2.28441 36.4384 2.63992L35.8819 5.76843L35.6037 5.48402C34.908 5.19961 34.0037 4.9152 32.6819 4.9152C31.2211 4.98631 30.5254 5.62623 30.5254 6.19505C30.5254 6.83497 31.3602 7.33269 32.6819 7.97261C34.908 9.03915 35.9515 10.2479 35.9515 11.9544Z" fill="#9DABBF"/>
<path d="M2 2.35472L2.06957 2.07031H8.05217C8.88696 2.07031 9.51304 2.35472 9.72174 3.27906L11.0435 9.67828C9.72174 6.26536 6.66087 3.49237 2 2.35472Z" fill="#9DABBF"/>
<path d="M19.4629 2.21368L13.4107 16.6475H9.30639L5.82812 4.56006C8.33247 6.19542 10.4194 8.75511 11.1846 10.5327L11.602 12.0258L15.3586 2.14258H19.4629V2.21368Z" fill="#9DABBF"/>
<path d="M21.0598 2.14258H24.8859L22.4511 16.6475H18.625L21.0598 2.14258Z" fill="#9DABBF"/>
</g>
</svg>
